<svg xmlns="http://www.w3.org/2000/svg" xmlns:xlink="http://www.w3.org/1999/xlink" width="500" zoomAndPan="magnify" viewBox="0 0 375.12 383.03998" height="500" preserveAspectRatio="xMidYMid meet" version="1.2"><defs><clipPath id="6156e2e422"><path d="M 13 230 L 192.25 230 L 192.25 374 L 13 374 Z M 13 230 "/></clipPath></defs><g id="07e96ce988"><path style=" stroke:none;fill-rule:nonzero;fill:#ef9011;fill-opacity:1;" d="M 360.609375 361.730469 C 360.574219 361.46875 360.539062 361.246094 360.515625 360.996094 C 357.578125 335.390625 354.855469 309.742188 352.109375 284.140625 C 351.910156 282.214844 351.660156 280.40625 351.410156 278.730469 C 350.746094 274.371094 349.757812 270.804688 348.25 267.796875 C 347.179688 265.550781 345.8125 263.648438 344.113281 261.972656 C 341.984375 261.058594 339.679688 260.238281 337.207031 259.320312 C 337.085938 259.320312 336.898438 259.261719 336.765625 259.261719 C 327.542969 256.101562 245.554688 230.84375 244.460938 230.746094 C 244.164062 231.816406 243.890625 232.921875 243.566406 233.933594 C 241.226562 242.65625 238.980469 251.359375 236.578125 260.023438 C 234.773438 266.558594 232.941406 273.050781 230.957031 279.527344 C 225.453125 297.296875 219.261719 314.902344 213.09375 332.480469 C 213.03125 332.707031 212.960938 332.894531 212.867188 333.074219 C 212.175781 335.070312 211.226562 336.9375 210.277344 338.863281 C 209.800781 335.511719 208.597656 322.839844 207.363281 309.183594 C 205.628906 289.929688 203.796875 268.675781 203.796875 268.675781 L 210.5 254.484375 C 211.09375 253.1875 211.070312 251.703125 210.429688 250.40625 L 206.769531 243.300781 C 205.972656 241.777344 204.402344 240.792969 202.65625 240.792969 L 171.359375 240.792969 C 169.613281 240.792969 168.042969 241.777344 167.246094 243.300781 L 163.574219 250.40625 C 162.921875 251.703125 162.921875 253.1875 163.515625 254.484375 L 170.21875 268.675781 C 170.21875 268.675781 168.390625 289.929688 166.640625 309.183594 C 165.417969 322.839844 164.21875 335.511719 163.742188 338.863281 C 162.765625 336.9375 161.816406 335.070312 161.152344 333.074219 C 161.054688 332.894531 160.960938 332.707031 160.925781 332.480469 C 154.769531 314.902344 148.5625 297.296875 143.035156 279.527344 C 141.074219 273.050781 139.207031 266.558594 137.4375 260.023438 C 135.035156 251.359375 132.753906 242.65625 130.414062 233.933594 C 130.128906 232.921875 129.855469 231.816406 129.558594 230.746094 C 128.464844 230.84375 46.546875 256.101562 37.308594 259.261719 C 37.121094 259.261719 37 259.320312 36.871094 259.320312 C 34.398438 260.238281 32.09375 261.058594 29.976562 261.972656 C 28.265625 263.625 26.910156 265.492188 25.839844 267.703125 C 24.320312 270.707031 23.332031 274.347656 22.667969 278.730469 C 22.359375 280.40625 22.167969 282.214844 21.976562 284.140625 C 19.21875 309.742188 16.414062 335.390625 13.503906 360.996094 C 13.480469 361.246094 13.441406 361.46875 13.40625 361.730469 C 12.683594 368.019531 17.578125 373.582031 23.960938 373.582031 C 26.433594 373.582031 29.273438 373.617188 32.414062 373.617188 L 32.507812 373.617188 C 33.863281 373.796875 34.648438 373.773438 34.648438 373.773438 L 339.359375 373.773438 C 339.359375 373.773438 340.152344 373.796875 341.449219 373.617188 C 341.484375 373.617188 341.484375 373.617188 341.507812 373.617188 C 344.707031 373.617188 347.582031 373.582031 350.113281 373.582031 C 356.4375 373.582031 361.40625 368.019531 360.609375 361.730469 "/><path style=" stroke:none;fill-rule:nonzero;fill:#ef9011;fill-opacity:1;" d="M 210.394531 209.496094 C 213.304688 208.960938 216.21875 208.070312 219.128906 206.84375 L 219.59375 206.679688 C 223.480469 205.289062 227.023438 203.800781 230.125 202.222656 L 230.351562 202.101562 C 232.492188 200.890625 234.582031 199.628906 236.578125 198.273438 C 244.886719 192.640625 252.125 185.058594 257.5 176.332031 C 259.910156 172.410156 262.121094 167.953125 264.203125 162.699219 C 265 160.75 265.472656 158.8125 265.914062 157.136719 C 266.449219 154.890625 266.863281 153.132812 267.78125 152.015625 C 268.824219 150.683594 270.347656 149.425781 271.953125 148.070312 C 272.832031 147.308594 273.722656 146.546875 274.578125 145.785156 C 281.304688 139.59375 283.019531 132 283.742188 126.054688 C 283.910156 124.832031 284.0625 123.59375 284.253906 122.335938 C 284.632812 119.898438 285.003906 117.367188 285.167969 114.714844 C 285.265625 113.136719 285.359375 111.042969 285.265625 108.867188 L 285.265625 108.453125 C 285.300781 108.144531 285.300781 107.859375 285.300781 107.539062 C 285.300781 100.894531 281.402344 93.371094 274.484375 91.289062 C 274.519531 91.0625 274.578125 90.875 274.578125 90.683594 C 274.675781 89.828125 274.769531 88.984375 274.828125 88.09375 C 275.078125 85.558594 275.304688 83.195312 275.839844 81.101562 C 277.585938 74.210938 278.5625 67.292969 278.808594 60.515625 C 279.628906 37.730469 267.875 18.691406 247.382812 9.5625 C 245.242188 8.609375 242.984375 7.695312 240.714844 6.839844 C 228.484375 2.324219 215.480469 0.015625 202.027344 -0.113281 C 201.992188 -0.113281 201.992188 -0.113281 201.957031 -0.113281 L 201.957031 210.222656 L 202.714844 210.222656 C 205.308594 210.222656 207.839844 209.996094 210.394531 209.496094 "/><path style=" stroke:none;fill-rule:nonzero;fill:#ef9011;fill-opacity:1;" d="M 90.582031 139.5 C 87.980469 142.53125 88.492188 145.179688 89.847656 147.5 C 93.660156 153.90625 97.429688 160.488281 101.113281 167.265625 C 102.800781 170.140625 104.871094 171.082031 108.316406 170.460938 C 129.058594 166.660156 146.683594 174.050781 162.28125 193.011719 C 162.992188 193.914062 163.671875 194.875 164.289062 195.980469 C 165.773438 198.597656 166.902344 201.601562 167.878906 204.253906 L 168.128906 204.992188 C 168.425781 205.738281 168.710938 206.417969 169.03125 206.964844 C 170.328125 209.222656 172.167969 210.222656 174.9375 210.195312 C 178.945312 210.160156 183.019531 210.195312 186.765625 210.222656 L 186.765625 150.054688 C 182.984375 150.089844 179.207031 149.636719 175.460938 148.675781 C 163.707031 145.667969 153.886719 138.179688 147.625 127.257812 C 143.355469 119.804688 141.324219 111.402344 141.679688 102.996094 C 141.847656 99.515625 142.417969 96.054688 143.429688 92.667969 C 146.816406 80.914062 154.753906 71.191406 165.832031 65.28125 C 172.527344 61.703125 179.691406 60.015625 186.765625 60.054688 L 186.765625 -0.113281 C 182.820312 -0.113281 178.980469 -0.078125 175.234375 -0.078125 C 172.300781 -0.0429688 170.386719 1.207031 169.519531 3.855469 C 165.191406 16.585938 157.027344 26.046875 144.582031 32.761719 C 131.898438 39.609375 120.523438 41.582031 108.769531 39.027344 C 105.570312 38.347656 103.347656 39.3125 101.695312 42.128906 C 100.304688 44.457031 98.949219 46.8125 97.597656 49.128906 L 96.789062 50.519531 C 94.753906 54.074219 92.425781 58.078125 90.132812 61.894531 C 88.421875 64.734375 89.167969 67.351562 89.917969 68.632812 C 90.238281 69.230469 90.65625 69.835938 91.140625 70.417969 L 91.6875 71.058594 C 93.460938 73.222656 95.492188 75.683594 96.976562 78.296875 C 97.597656 79.390625 98.105469 80.460938 98.5 81.53125 C 102.089844 91.277344 103.707031 100.417969 103.3125 108.714844 C 102.800781 120.113281 98.628906 130.191406 90.582031 139.5 "/><g clip-rule="nonzero" clip-path="url(#6156e2e422)"><path style=" stroke:none;fill-rule:nonzero;fill:#ffffff;fill-opacity:1;" d="M 360.609375 361.730469 C 360.574219 361.46875 360.539062 361.246094 360.515625 360.996094 C 357.578125 335.390625 354.855469 309.742188 352.109375 284.140625 C 351.910156 282.214844 351.660156 280.40625 351.410156 278.730469 C 350.746094 274.371094 349.757812 270.804688 348.25 267.796875 C 347.179688 265.550781 345.8125 263.648438 344.113281 261.972656 C 341.984375 261.058594 339.679688 260.238281 337.207031 259.320312 C 337.085938 259.320312 336.898438 259.261719 336.765625 259.261719 C 327.542969 256.101562 245.554688 230.84375 244.460938 230.746094 C 244.164062 231.816406 243.890625 232.921875 243.566406 233.933594 C 241.226562 242.65625 238.980469 251.359375 236.578125 260.023438 C 234.773438 266.558594 232.941406 273.050781 230.957031 279.527344 C 225.453125 297.296875 219.261719 314.902344 213.09375 332.480469 C 213.03125 332.707031 212.960938 332.894531 212.867188 333.074219 C 212.175781 335.070312 211.226562 336.9375 210.277344 338.863281 C 209.800781 335.511719 208.597656 322.839844 207.363281 309.183594 C 205.628906 289.929688 203.796875 268.675781 203.796875 268.675781 L 210.5 254.484375 C 211.09375 253.1875 211.070312 251.703125 210.429688 250.40625 L 206.769531 243.300781 C 205.972656 241.777344 204.402344 240.792969 202.65625 240.792969 L 171.359375 240.792969 C 169.613281 240.792969 168.042969 241.777344 167.246094 243.300781 L 163.574219 250.40625 C 162.921875 251.703125 162.921875 253.1875 163.515625 254.484375 L 170.21875 268.675781 C 170.21875 268.675781 168.390625 289.929688 166.640625 309.183594 C 165.417969 322.839844 164.21875 335.511719 163.742188 338.863281 C 162.765625 336.9375 161.816406 335.070312 161.152344 333.074219 C 161.054688 332.894531 160.960938 332.707031 160.925781 332.480469 C 154.769531 314.902344 148.5625 297.296875 143.035156 279.527344 C 141.074219 273.050781 139.207031 266.558594 137.4375 260.023438 C 135.035156 251.359375 132.753906 242.65625 130.414062 233.933594 C 130.128906 232.921875 129.855469 231.816406 129.558594 230.746094 C 128.464844 230.84375 46.546875 256.101562 37.308594 259.261719 C 37.121094 259.261719 37 259.320312 36.871094 259.320312 C 34.398438 260.238281 32.09375 261.058594 29.976562 261.972656 C 28.265625 263.625 26.910156 265.492188 25.839844 267.703125 C 24.320312 270.707031 23.332031 274.347656 22.667969 278.730469 C 22.359375 280.40625 22.167969 282.214844 21.976562 284.140625 C 19.21875 309.742188 16.414062 335.390625 13.503906 360.996094 C 13.480469 361.246094 13.441406 361.46875 13.40625 361.730469 C 12.683594 368.019531 17.578125 373.582031 23.960938 373.582031 C 26.433594 373.582031 29.273438 373.617188 32.414062 373.617188 L 32.507812 373.617188 C 33.863281 373.796875 34.648438 373.773438 34.648438 373.773438 L 339.359375 373.773438 C 339.359375 373.773438 340.152344 373.796875 341.449219 373.617188 C 341.484375 373.617188 341.484375 373.617188 341.507812 373.617188 C 344.707031 373.617188 347.582031 373.582031 350.113281 373.582031 C 356.4375 373.582031 361.40625 368.019531 360.609375 361.730469 "/></g><path style=" stroke:none;fill-rule:nonzero;fill:#ffffff;fill-opacity:1;" d="M 90.582031 139.5 C 87.980469 142.53125 88.492188 145.179688 89.847656 147.5 C 93.660156 153.90625 97.429688 160.488281 101.113281 167.265625 C 102.800781 170.140625 104.871094 171.082031 108.316406 170.460938 C 129.058594 166.660156 146.683594 174.050781 162.28125 193.011719 C 162.992188 193.914062 163.671875 194.875 164.289062 195.980469 C 165.773438 198.597656 166.902344 201.601562 167.878906 204.253906 L 168.128906 204.992188 C 168.425781 205.738281 168.710938 206.417969 169.03125 206.964844 C 170.328125 209.222656 172.167969 210.222656 174.9375 210.195312 C 178.945312 210.160156 183.019531 210.195312 186.765625 210.222656 L 186.765625 150.054688 C 182.984375 150.089844 179.207031 149.636719 175.460938 148.675781 C 163.707031 145.667969 153.886719 138.179688 147.625 127.257812 C 143.355469 119.804688 141.324219 111.402344 141.679688 102.996094 C 141.847656 99.515625 142.417969 96.054688 143.429688 92.667969 C 146.816406 80.914062 154.753906 71.191406 165.832031 65.28125 C 172.527344 61.703125 179.691406 60.015625 186.765625 60.054688 L 186.765625 -0.113281 C 182.820312 -0.113281 178.980469 -0.078125 175.234375 -0.078125 C 172.300781 -0.0429688 170.386719 1.207031 169.519531 3.855469 C 165.191406 16.585938 157.027344 26.046875 144.582031 32.761719 C 131.898438 39.609375 120.523438 41.582031 108.769531 39.027344 C 105.570312 38.347656 103.347656 39.3125 101.695312 42.128906 C 100.304688 44.457031 98.949219 46.8125 97.597656 49.128906 L 96.789062 50.519531 C 94.753906 54.074219 92.425781 58.078125 90.132812 61.894531 C 88.421875 64.734375 89.167969 67.351562 89.917969 68.632812 C 90.238281 69.230469 90.65625 69.835938 91.140625 70.417969 L 91.6875 71.058594 C 93.460938 73.222656 95.492188 75.683594 96.976562 78.296875 C 97.597656 79.390625 98.105469 80.460938 98.5 81.53125 C 102.089844 91.277344 103.707031 100.417969 103.3125 108.714844 C 102.800781 120.113281 98.628906 130.191406 90.582031 139.5 "/></g></svg>