<svg xmlns="http://www.w3.org/2000/svg" xmlns:xlink="http://www.w3.org/1999/xlink" width="500" zoomAndPan="magnify" viewBox="0 0 375.12 383.03998" height="500" preserveAspectRatio="xMidYMid meet" version="1.2"><defs><clipPath id="0099e2ae95"><path d="M 20 2 L 353 2 L 353 373.34375 L 20 373.34375 Z M 20 2 "/></clipPath><clipPath id="ef385cf95d"><path d="M 20 2 L 219.980469 2 L 219.980469 369.601562 L 20 369.601562 Z M 20 2 "/></clipPath></defs><g id="2f217c2d46"><g clip-rule="nonzero" clip-path="url(#0099e2ae95)"><path style=" stroke:none;fill-rule:nonzero;fill:#ef9011;fill-opacity:1;" d="M 348.730469 242.746094 C 345.511719 237.375 332.324219 221.402344 297.777344 241.523438 L 237.78125 276.46875 C 235.308594 277.910156 232.800781 278.992188 230.207031 279.734375 C 231.046875 278.140625 231.730469 276.398438 232.234375 274.515625 C 235.390625 262.730469 228.398438 250.429688 216.3125 246.511719 C 216.054688 246.429688 215.792969 246.363281 215.53125 246.316406 C 198.339844 243.214844 181.351562 237.070312 167.699219 232.136719 C 162.941406 230.417969 158.449219 228.792969 154.625 227.554688 C 139.019531 222.488281 124.972656 228.722656 113.289062 235.484375 L 69.226562 260.996094 L 65.34375 254.136719 C 63.398438 250.703125 60.226562 248.226562 56.40625 247.167969 C 52.585938 246.109375 48.589844 246.597656 45.152344 248.542969 L 28.320312 258.070312 C 21.210938 262.09375 18.703125 271.148438 22.726562 278.257812 L 72.214844 365.707031 C 74.160156 369.140625 77.335938 371.617188 81.15625 372.675781 C 82.476562 373.042969 83.816406 373.222656 85.148438 373.222656 C 87.671875 373.222656 90.160156 372.574219 92.40625 371.300781 L 109.238281 361.773438 C 116.347656 357.75 118.859375 348.695312 114.835938 341.585938 L 110.054688 333.136719 L 119.429688 327.722656 L 196.011719 348.242188 C 200.308594 349.394531 204.582031 349.96875 208.789062 349.96875 C 217.296875 349.96875 225.515625 347.625 233.027344 343 L 341.90625 275.957031 C 352.121094 269.667969 355.375 253.839844 348.730469 242.746094 Z M 103.347656 351.363281 L 86.511719 360.890625 C 85.628906 361.390625 84.777344 361.265625 84.347656 361.148438 C 83.917969 361.03125 83.125 360.699219 82.625 359.816406 L 33.132812 272.367188 C 32.371094 271.023438 32.867188 269.242188 34.210938 268.480469 L 51.046875 258.953125 C 51.535156 258.675781 52.019531 258.589844 52.421875 258.589844 C 52.746094 258.589844 53.019531 258.644531 53.210938 258.699219 C 53.640625 258.816406 54.433594 259.148438 54.933594 260.03125 L 104.425781 347.476562 C 105.1875 348.824219 104.691406 350.601562 103.347656 351.363281 Z M 205.636719 290.988281 L 213.101562 292.203125 C 224.414062 294.011719 234.457031 292.246094 243.800781 286.804688 L 303.796875 251.859375 C 320.71875 242.003906 333.679688 240.894531 338.46875 248.894531 C 341.75 254.371094 340.316406 262.886719 335.632812 265.769531 L 226.753906 332.8125 C 218.277344 338.03125 208.976562 339.335938 199.105469 336.6875 L 120.128906 315.527344 C 118.597656 315.121094 116.964844 315.332031 115.59375 316.125 L 104.160156 322.726562 L 75.117188 271.40625 L 119.28125 245.835938 C 129.15625 240.121094 139.824219 235.324219 150.933594 238.929688 C 154.570312 240.109375 158.769531 241.625 163.628906 243.382812 C 177.59375 248.433594 194.941406 254.703125 212.96875 258.007812 C 218.878906 260.09375 222.183594 265.800781 220.679688 271.417969 C 218.695312 278.816406 212.488281 279.734375 207.539062 279.167969 C 198.742188 277.359375 190.371094 274.96875 181.511719 272.4375 C 177.296875 271.234375 172.9375 269.988281 168.453125 268.789062 C 165.261719 267.933594 161.984375 269.828125 161.128906 273.015625 C 160.273438 276.207031 162.164062 279.488281 165.355469 280.34375 C 169.746094 281.519531 174.058594 282.75 178.226562 283.941406 C 187.398438 286.558594 196.058594 289.03125 205.398438 290.941406 M 55.605469 275.269531 C 56.085938 278.554688 53.8125 281.605469 50.527344 282.085938 C 47.246094 282.566406 44.191406 280.292969 43.710938 277.007812 C 43.234375 273.722656 45.503906 270.671875 48.789062 270.191406 C 52.074219 269.710938 55.125 271.984375 55.605469 275.269531 Z M 143.824219 95.824219 C 146.59375 101.21875 147.980469 103.929688 148.378906 106.179688 C 148.773438 108.429688 148.394531 111.449219 147.644531 117.46875 C 147.453125 118.980469 147.242188 120.667969 147.015625 122.5625 C 145.769531 132.980469 151.414062 142.757812 161.058594 146.890625 C 162.8125 147.640625 164.378906 148.300781 165.785156 148.894531 C 166.039062 149 166.285156 149.105469 166.527344 149.207031 L 144.300781 196.953125 C 143.359375 198.976562 143.617188 201.347656 144.972656 203.117188 C 146.328125 204.886719 148.554688 205.753906 150.75 205.371094 L 175.183594 201.101562 L 187.648438 222.546875 C 188.722656 224.394531 190.695312 225.523438 192.816406 225.523438 C 192.910156 225.523438 193 225.523438 193.089844 225.519531 C 195.316406 225.417969 197.300781 224.085938 198.242188 222.066406 L 220.308594 174.667969 L 219.875 174.464844 C 223.652344 173.324219 225.882812 172.746094 227.707031 172.746094 C 229.996094 172.746094 232.902344 173.644531 238.699219 175.433594 C 239.304688 175.621094 239.949219 175.820312 240.617188 176.023438 L 256.542969 213 C 257.425781 215.046875 259.371094 216.433594 261.59375 216.597656 C 261.742188 216.609375 261.890625 216.613281 262.039062 216.613281 C 264.09375 216.613281 266.023438 215.554688 267.117188 213.785156 L 280.199219 192.710938 L 304.496094 197.6875 C 306.679688 198.136719 308.929688 197.332031 310.335938 195.605469 C 311.742188 193.875 312.070312 191.507812 311.191406 189.460938 L 293.089844 147.433594 C 293.5 147.257812 293.925781 147.078125 294.359375 146.890625 C 304.003906 142.761719 309.648438 132.984375 308.402344 122.5625 C 308.175781 120.667969 307.964844 118.984375 307.777344 117.46875 C 307.023438 111.453125 306.644531 108.433594 307.039062 106.179688 C 307.4375 103.929688 308.828125 101.222656 311.59375 95.828125 C 312.289062 94.46875 313.0625 92.957031 313.925781 91.253906 C 318.660156 81.890625 316.699219 70.769531 309.046875 63.589844 C 307.65625 62.285156 306.410156 61.128906 305.292969 60.089844 C 300.847656 55.964844 298.617188 53.898438 297.472656 51.917969 C 296.328125 49.9375 295.652344 46.96875 294.304688 41.058594 C 293.964844 39.570312 293.585938 37.914062 293.152344 36.054688 C 290.757812 25.839844 282.109375 18.582031 271.632812 18 C 269.726562 17.894531 268.03125 17.808594 266.507812 17.734375 C 260.449219 17.429688 257.410156 17.28125 255.261719 16.496094 C 253.113281 15.714844 250.6875 13.878906 245.855469 10.214844 C 244.636719 9.296875 243.285156 8.269531 241.757812 7.125 C 233.355469 0.835938 222.066406 0.835938 213.664062 7.125 C 212.136719 8.269531 210.785156 9.296875 209.566406 10.214844 C 204.734375 13.878906 202.308594 15.714844 200.160156 16.496094 C 198.011719 17.28125 194.972656 17.429688 188.914062 17.734375 C 187.390625 17.808594 185.695312 17.894531 183.789062 18 C 173.3125 18.582031 164.664062 25.839844 162.269531 36.054688 C 161.835938 37.914062 161.457031 39.570312 161.117188 41.058594 C 159.769531 46.96875 159.09375 49.9375 157.949219 51.917969 C 156.804688 53.894531 154.574219 55.964844 150.128906 60.089844 C 149.011719 61.128906 147.765625 62.285156 146.375 63.589844 C 138.722656 70.769531 136.761719 81.886719 141.496094 91.253906 C 142.355469 92.957031 143.128906 94.46875 143.824219 95.824219 Z M 192.234375 206.628906 L 183.433594 191.488281 C 182.175781 189.320312 179.703125 188.171875 177.234375 188.601562 L 159.980469 191.613281 L 177.035156 154.984375 C 178.445312 156.558594 180.019531 158.992188 182.621094 163.019531 C 183.449219 164.300781 184.371094 165.730469 185.414062 167.328125 C 189.851562 174.113281 197.191406 177.960938 204.933594 177.960938 C 205.152344 177.960938 205.371094 177.941406 205.59375 177.933594 Z M 278.511719 180.15625 C 276.058594 179.652344 273.550781 180.730469 272.230469 182.859375 L 262.996094 197.742188 L 254.332031 177.625 C 260.605469 176.570312 266.308594 172.972656 270.003906 167.328125 C 271.046875 165.730469 271.96875 164.304688 272.796875 163.019531 C 276.085938 157.925781 277.738281 155.371094 279.488281 153.898438 C 280.171875 153.328125 281.019531 152.796875 282.128906 152.222656 L 295.671875 183.667969 Z M 154.558594 72.308594 C 155.929688 71.023438 157.160156 69.882812 158.261719 68.859375 C 168.878906 59.011719 169.558594 57.835938 172.777344 43.714844 C 173.113281 42.25 173.484375 40.617188 173.914062 38.78125 C 175.105469 33.703125 179.242188 30.230469 184.453125 29.941406 C 186.332031 29.835938 188.003906 29.753906 189.507812 29.679688 C 203.972656 28.957031 205.246094 28.492188 216.789062 19.75 C 217.988281 18.839844 219.324219 17.828125 220.832031 16.699219 C 222.921875 15.136719 225.316406 14.355469 227.710938 14.355469 C 230.105469 14.355469 232.5 15.136719 234.585938 16.699219 C 236.09375 17.828125 237.429688 18.839844 238.628906 19.746094 C 250.171875 28.492188 251.449219 28.957031 265.910156 29.675781 C 267.414062 29.75 269.085938 29.835938 270.96875 29.941406 C 276.179688 30.230469 280.3125 33.699219 281.503906 38.78125 C 281.933594 40.613281 282.304688 42.25 282.640625 43.714844 C 285.863281 57.835938 286.539062 59.007812 297.15625 68.859375 C 298.261719 69.882812 299.488281 71.019531 300.863281 72.308594 C 304.667969 75.882812 305.605469 81.199219 303.25 85.855469 C 302.402344 87.535156 301.636719 89.027344 300.949219 90.367188 C 294.34375 103.253906 294.105469 104.589844 295.90625 118.957031 C 296.09375 120.449219 296.304688 122.113281 296.527344 123.980469 C 297.148438 129.164062 294.449219 133.839844 289.648438 135.894531 C 287.917969 136.632812 286.375 137.285156 284.988281 137.871094 C 271.644531 143.492188 270.605469 144.367188 262.746094 156.53125 C 261.929688 157.796875 261.023438 159.203125 259.992188 160.777344 C 257.136719 165.144531 252.0625 166.992188 247.066406 165.484375 C 245.265625 164.9375 243.664062 164.445312 242.226562 164 C 228.390625 159.730469 227.03125 159.730469 213.191406 164 C 211.753906 164.445312 210.152344 164.9375 208.351562 165.484375 C 203.359375 166.992188 198.28125 165.144531 195.425781 160.777344 C 194.394531 159.203125 193.484375 157.792969 192.667969 156.53125 C 184.816406 144.367188 183.773438 143.492188 170.429688 137.871094 C 169.042969 137.285156 167.5 136.636719 165.769531 135.894531 C 160.972656 133.839844 158.273438 129.164062 158.890625 123.980469 C 159.113281 122.113281 159.324219 120.449219 159.511719 118.957031 C 161.3125 104.585938 161.078125 103.25 154.46875 90.363281 C 153.78125 89.027344 153.019531 87.535156 152.167969 85.855469 C 149.816406 81.199219 150.753906 75.882812 154.558594 72.308594 Z M 227.707031 145.023438 C 257.949219 145.023438 282.550781 120.417969 282.550781 90.179688 C 282.550781 59.9375 257.949219 35.339844 227.707031 35.339844 C 197.46875 35.339844 172.867188 59.941406 172.867188 90.179688 C 172.867188 120.417969 197.46875 145.023438 227.707031 145.023438 Z M 227.707031 47.300781 C 251.351562 47.300781 270.589844 66.535156 270.589844 90.179688 C 270.589844 113.824219 251.351562 133.058594 227.707031 133.058594 C 204.0625 133.058594 184.828125 113.824219 184.828125 90.179688 C 184.828125 66.535156 204.066406 47.300781 227.707031 47.300781 Z M 212.484375 111.375 L 197.089844 95.980469 C 194.753906 93.644531 194.753906 89.859375 197.089844 87.523438 C 199.425781 85.1875 203.214844 85.1875 205.546875 87.523438 L 216.910156 98.886719 L 250.078125 68.785156 C 252.523438 66.566406 256.304688 66.75 258.527344 69.195312 C 260.746094 71.644531 260.5625 75.425781 258.117188 77.644531 L 220.730469 111.574219 C 219.589844 112.609375 218.148438 113.125 216.710938 113.125 C 215.179688 113.125 213.648438 112.539062 212.484375 111.375 Z M 212.484375 111.375 "/></g><g clip-rule="nonzero" clip-path="url(#ef385cf95d)"><path style=" stroke:none;fill-rule:nonzero;fill:#ffffff;fill-opacity:1;" d="M 348.730469 242.746094 C 345.511719 237.375 332.324219 221.402344 297.777344 241.523438 L 237.78125 276.46875 C 235.308594 277.910156 232.800781 278.992188 230.207031 279.734375 C 231.046875 278.140625 231.730469 276.398438 232.234375 274.515625 C 235.390625 262.730469 228.398438 250.429688 216.3125 246.511719 C 216.054688 246.429688 215.792969 246.363281 215.53125 246.316406 C 198.339844 243.214844 181.351562 237.070312 167.699219 232.136719 C 162.941406 230.417969 158.449219 228.792969 154.625 227.554688 C 139.019531 222.488281 124.972656 228.722656 113.289062 235.484375 L 69.226562 260.996094 L 65.34375 254.136719 C 63.398438 250.703125 60.226562 248.226562 56.40625 247.167969 C 52.585938 246.109375 48.589844 246.597656 45.152344 248.542969 L 28.320312 258.070312 C 21.210938 262.09375 18.703125 271.148438 22.726562 278.257812 L 72.214844 365.707031 C 74.160156 369.140625 77.335938 371.617188 81.15625 372.675781 C 82.476562 373.042969 83.816406 373.222656 85.148438 373.222656 C 87.671875 373.222656 90.160156 372.574219 92.40625 371.300781 L 109.238281 361.773438 C 116.347656 357.75 118.859375 348.695312 114.835938 341.585938 L 110.054688 333.136719 L 119.429688 327.722656 L 196.011719 348.242188 C 200.308594 349.394531 204.582031 349.96875 208.789062 349.96875 C 217.296875 349.96875 225.515625 347.625 233.027344 343 L 341.90625 275.957031 C 352.121094 269.667969 355.375 253.839844 348.730469 242.746094 Z M 103.347656 351.363281 L 86.511719 360.890625 C 85.628906 361.390625 84.777344 361.265625 84.347656 361.148438 C 83.917969 361.03125 83.125 360.699219 82.625 359.816406 L 33.132812 272.367188 C 32.371094 271.023438 32.867188 269.242188 34.210938 268.480469 L 51.046875 258.953125 C 51.535156 258.675781 52.019531 258.589844 52.421875 258.589844 C 52.746094 258.589844 53.019531 258.644531 53.210938 258.699219 C 53.640625 258.816406 54.433594 259.148438 54.933594 260.03125 L 104.425781 347.476562 C 105.1875 348.824219 104.691406 350.601562 103.347656 351.363281 Z M 205.636719 290.988281 L 213.101562 292.203125 C 224.414062 294.011719 234.457031 292.246094 243.800781 286.804688 L 303.796875 251.859375 C 320.71875 242.003906 333.679688 240.894531 338.46875 248.894531 C 341.75 254.371094 340.316406 262.886719 335.632812 265.769531 L 226.753906 332.8125 C 218.277344 338.03125 208.976562 339.335938 199.105469 336.6875 L 120.128906 315.527344 C 118.597656 315.121094 116.964844 315.332031 115.59375 316.125 L 104.160156 322.726562 L 75.117188 271.40625 L 119.28125 245.835938 C 129.15625 240.121094 139.824219 235.324219 150.933594 238.929688 C 154.570312 240.109375 158.769531 241.625 163.628906 243.382812 C 177.59375 248.433594 194.941406 254.703125 212.96875 258.007812 C 218.878906 260.09375 222.183594 265.800781 220.679688 271.417969 C 218.695312 278.816406 212.488281 279.734375 207.539062 279.167969 C 198.742188 277.359375 190.371094 274.96875 181.511719 272.4375 C 177.296875 271.234375 172.9375 269.988281 168.453125 268.789062 C 165.261719 267.933594 161.984375 269.828125 161.128906 273.015625 C 160.273438 276.207031 162.164062 279.488281 165.355469 280.34375 C 169.746094 281.519531 174.058594 282.75 178.226562 283.941406 C 187.398438 286.558594 196.058594 289.03125 205.398438 290.941406 M 55.605469 275.269531 C 56.085938 278.554688 53.8125 281.605469 50.527344 282.085938 C 47.246094 282.566406 44.191406 280.292969 43.710938 277.007812 C 43.234375 273.722656 45.503906 270.671875 48.789062 270.191406 C 52.074219 269.710938 55.125 271.984375 55.605469 275.269531 Z M 143.824219 95.824219 C 146.59375 101.21875 147.980469 103.929688 148.378906 106.179688 C 148.773438 108.429688 148.394531 111.449219 147.644531 117.46875 C 147.453125 118.980469 147.242188 120.667969 147.015625 122.5625 C 145.769531 132.980469 151.414062 142.757812 161.058594 146.890625 C 162.8125 147.640625 164.378906 148.300781 165.785156 148.894531 C 166.039062 149 166.285156 149.105469 166.527344 149.207031 L 144.300781 196.953125 C 143.359375 198.976562 143.617188 201.347656 144.972656 203.117188 C 146.328125 204.886719 148.554688 205.753906 150.75 205.371094 L 175.183594 201.101562 L 187.648438 222.546875 C 188.722656 224.394531 190.695312 225.523438 192.816406 225.523438 C 192.910156 225.523438 193 225.523438 193.089844 225.519531 C 195.316406 225.417969 197.300781 224.085938 198.242188 222.066406 L 220.308594 174.667969 L 219.875 174.464844 C 223.652344 173.324219 225.882812 172.746094 227.707031 172.746094 C 229.996094 172.746094 232.902344 173.644531 238.699219 175.433594 C 239.304688 175.621094 239.949219 175.820312 240.617188 176.023438 L 256.542969 213 C 257.425781 215.046875 259.371094 216.433594 261.59375 216.597656 C 261.742188 216.609375 261.890625 216.613281 262.039062 216.613281 C 264.09375 216.613281 266.023438 215.554688 267.117188 213.785156 L 280.199219 192.710938 L 304.496094 197.6875 C 306.679688 198.136719 308.929688 197.332031 310.335938 195.605469 C 311.742188 193.875 312.070312 191.507812 311.191406 189.460938 L 293.089844 147.433594 C 293.5 147.257812 293.925781 147.078125 294.359375 146.890625 C 304.003906 142.761719 309.648438 132.984375 308.402344 122.5625 C 308.175781 120.667969 307.964844 118.984375 307.777344 117.46875 C 307.023438 111.453125 306.644531 108.433594 307.039062 106.179688 C 307.4375 103.929688 308.828125 101.222656 311.59375 95.828125 C 312.289062 94.46875 313.0625 92.957031 313.925781 91.253906 C 318.660156 81.890625 316.699219 70.769531 309.046875 63.589844 C 307.65625 62.285156 306.410156 61.128906 305.292969 60.089844 C 300.847656 55.964844 298.617188 53.898438 297.472656 51.917969 C 296.328125 49.9375 295.652344 46.96875 294.304688 41.058594 C 293.964844 39.570312 293.585938 37.914062 293.152344 36.054688 C 290.757812 25.839844 282.109375 18.582031 271.632812 18 C 269.726562 17.894531 268.03125 17.808594 266.507812 17.734375 C 260.449219 17.429688 257.410156 17.28125 255.261719 16.496094 C 253.113281 15.714844 250.6875 13.878906 245.855469 10.214844 C 244.636719 9.296875 243.285156 8.269531 241.757812 7.125 C 233.355469 0.835938 222.066406 0.835938 213.664062 7.125 C 212.136719 8.269531 210.785156 9.296875 209.566406 10.214844 C 204.734375 13.878906 202.308594 15.714844 200.160156 16.496094 C 198.011719 17.28125 194.972656 17.429688 188.914062 17.734375 C 187.390625 17.808594 185.695312 17.894531 183.789062 18 C 173.3125 18.582031 164.664062 25.839844 162.269531 36.054688 C 161.835938 37.914062 161.457031 39.570312 161.117188 41.058594 C 159.769531 46.96875 159.09375 49.9375 157.949219 51.917969 C 156.804688 53.894531 154.574219 55.964844 150.128906 60.089844 C 149.011719 61.128906 147.765625 62.285156 146.375 63.589844 C 138.722656 70.769531 136.761719 81.886719 141.496094 91.253906 C 142.355469 92.957031 143.128906 94.46875 143.824219 95.824219 Z M 192.234375 206.628906 L 183.433594 191.488281 C 182.175781 189.320312 179.703125 188.171875 177.234375 188.601562 L 159.980469 191.613281 L 177.035156 154.984375 C 178.445312 156.558594 180.019531 158.992188 182.621094 163.019531 C 183.449219 164.300781 184.371094 165.730469 185.414062 167.328125 C 189.851562 174.113281 197.191406 177.960938 204.933594 177.960938 C 205.152344 177.960938 205.371094 177.941406 205.59375 177.933594 Z M 278.511719 180.15625 C 276.058594 179.652344 273.550781 180.730469 272.230469 182.859375 L 262.996094 197.742188 L 254.332031 177.625 C 260.605469 176.570312 266.308594 172.972656 270.003906 167.328125 C 271.046875 165.730469 271.96875 164.304688 272.796875 163.019531 C 276.085938 157.925781 277.738281 155.371094 279.488281 153.898438 C 280.171875 153.328125 281.019531 152.796875 282.128906 152.222656 L 295.671875 183.667969 Z M 154.558594 72.308594 C 155.929688 71.023438 157.160156 69.882812 158.261719 68.859375 C 168.878906 59.011719 169.558594 57.835938 172.777344 43.714844 C 173.113281 42.25 173.484375 40.617188 173.914062 38.78125 C 175.105469 33.703125 179.242188 30.230469 184.453125 29.941406 C 186.332031 29.835938 188.003906 29.753906 189.507812 29.679688 C 203.972656 28.957031 205.246094 28.492188 216.789062 19.75 C 217.988281 18.839844 219.324219 17.828125 220.832031 16.699219 C 222.921875 15.136719 225.316406 14.355469 227.710938 14.355469 C 230.105469 14.355469 232.5 15.136719 234.585938 16.699219 C 236.09375 17.828125 237.429688 18.839844 238.628906 19.746094 C 250.171875 28.492188 251.449219 28.957031 265.910156 29.675781 C 267.414062 29.75 269.085938 29.835938 270.96875 29.941406 C 276.179688 30.230469 280.3125 33.699219 281.503906 38.78125 C 281.933594 40.613281 282.304688 42.25 282.640625 43.714844 C 285.863281 57.835938 286.539062 59.007812 297.15625 68.859375 C 298.261719 69.882812 299.488281 71.019531 300.863281 72.308594 C 304.667969 75.882812 305.605469 81.199219 303.25 85.855469 C 302.402344 87.535156 301.636719 89.027344 300.949219 90.367188 C 294.34375 103.253906 294.105469 104.589844 295.90625 118.957031 C 296.09375 120.449219 296.304688 122.113281 296.527344 123.980469 C 297.148438 129.164062 294.449219 133.839844 289.648438 135.894531 C 287.917969 136.632812 286.375 137.285156 284.988281 137.871094 C 271.644531 143.492188 270.605469 144.367188 262.746094 156.53125 C 261.929688 157.796875 261.023438 159.203125 259.992188 160.777344 C 257.136719 165.144531 252.0625 166.992188 247.066406 165.484375 C 245.265625 164.9375 243.664062 164.445312 242.226562 164 C 228.390625 159.730469 227.03125 159.730469 213.191406 164 C 211.753906 164.445312 210.152344 164.9375 208.351562 165.484375 C 203.359375 166.992188 198.28125 165.144531 195.425781 160.777344 C 194.394531 159.203125 193.484375 157.792969 192.667969 156.53125 C 184.816406 144.367188 183.773438 143.492188 170.429688 137.871094 C 169.042969 137.285156 167.5 136.636719 165.769531 135.894531 C 160.972656 133.839844 158.273438 129.164062 158.890625 123.980469 C 159.113281 122.113281 159.324219 120.449219 159.511719 118.957031 C 161.3125 104.585938 161.078125 103.25 154.46875 90.363281 C 153.78125 89.027344 153.019531 87.535156 152.167969 85.855469 C 149.816406 81.199219 150.753906 75.882812 154.558594 72.308594 Z M 227.707031 145.023438 C 257.949219 145.023438 282.550781 120.417969 282.550781 90.179688 C 282.550781 59.9375 257.949219 35.339844 227.707031 35.339844 C 197.46875 35.339844 172.867188 59.941406 172.867188 90.179688 C 172.867188 120.417969 197.46875 145.023438 227.707031 145.023438 Z M 227.707031 47.300781 C 251.351562 47.300781 270.589844 66.535156 270.589844 90.179688 C 270.589844 113.824219 251.351562 133.058594 227.707031 133.058594 C 204.0625 133.058594 184.828125 113.824219 184.828125 90.179688 C 184.828125 66.535156 204.066406 47.300781 227.707031 47.300781 Z M 212.484375 111.375 L 197.089844 95.980469 C 194.753906 93.644531 194.753906 89.859375 197.089844 87.523438 C 199.425781 85.1875 203.214844 85.1875 205.546875 87.523438 L 216.910156 98.886719 L 250.078125 68.785156 C 252.523438 66.566406 256.304688 66.75 258.527344 69.195312 C 260.746094 71.644531 260.5625 75.425781 258.117188 77.644531 L 220.730469 111.574219 C 219.589844 112.609375 218.148438 113.125 216.710938 113.125 C 215.179688 113.125 213.648438 112.539062 212.484375 111.375 Z M 212.484375 111.375 "/></g></g></svg>