<svg xmlns="http://www.w3.org/2000/svg" xmlns:xlink="http://www.w3.org/1999/xlink" width="500" zoomAndPan="magnify" viewBox="0 0 375.12 383.03998" height="500" preserveAspectRatio="xMidYMid meet" version="1.2"><defs><clipPath id="6a1b3cc8ed"><path d="M 4 1 L 370.992188 1 L 370.992188 374 L 4 374 Z M 4 1 "/></clipPath><clipPath id="9ae66e8825"><path d="M 4 1 L 221.367188 1 L 221.367188 374 L 4 374 Z M 4 1 "/></clipPath></defs><g id="5ee2786dfe"><g clip-rule="nonzero" clip-path="url(#6a1b3cc8ed)"><path style=" stroke:none;fill-rule:evenodd;fill:#ef9011;fill-opacity:1;" d="M 205.476562 279.148438 L 191.667969 279.148438 C 188.546875 279.148438 186.023438 281.667969 186.023438 284.808594 L 186.023438 316.820312 C 176.855469 316.34375 167.84375 314.632812 159.167969 311.777344 C 129.695312 302.074219 105.667969 279.101562 94.636719 250.085938 C 95.15625 246.183594 96.175781 245.707031 96.746094 245.472656 C 96.941406 245.375 97.160156 245.28125 97.394531 245.136719 L 111.8125 253.460938 C 123.882812 260.429688 138.4375 249.28125 134.839844 235.816406 C 133.753906 231.722656 131.15625 228.347656 127.574219 226.300781 L 88.367188 203.183594 C 89.601562 190.199219 93.191406 177.832031 99.082031 166.273438 L 121.957031 179.496094 L 117.871094 186.535156 C 111.660156 197.285156 115.363281 211.082031 126.117188 217.3125 C 136.875 223.542969 150.675781 219.832031 156.890625 209.082031 L 160.96875 201.996094 L 186.027344 216.457031 L 186.027344 251.035156 C 186.027344 254.128906 188.546875 256.699219 191.667969 256.699219 L 205.476562 256.699219 C 211.699219 256.699219 216.707031 261.746094 216.707031 267.921875 C 216.707031 274.105469 211.667969 279.148438 205.476562 279.148438 Z M 135.320312 319.246094 C 137.480469 320.480469 143.90625 320.433594 147.472656 319.484375 C 118.109375 307.210938 94.570312 282.761719 83.570312 252.746094 C 83.285156 251.9375 83.183594 251.128906 83.257812 250.273438 C 84.191406 240.09375 88.414062 236.90625 91.976562 235.242188 C 92.0625 235.195312 92.128906 235.148438 92.195312 235.148438 C 95.445312 233.246094 99.316406 233.246094 102.578125 235.101562 L 117.453125 243.710938 C 119.570312 244.945312 122.285156 244.1875 123.503906 242.09375 C 124.703125 240 124.023438 237.28125 121.886719 236.050781 L 65.0625 202.566406 L 43.554688 239.808594 L 52.550781 244.996094 C 56.292969 247.132812 59.203125 249.796875 61.714844 253.316406 C 86.527344 288.136719 99.699219 298.648438 135.320312 319.246094 Z M 29.5625 241.476562 L 16.074219 233.675781 L 45.847656 182.113281 L 59.332031 189.914062 Z M 59.902344 188.914062 L 59.894531 188.914062 C 59.894531 188.914062 59.894531 188.914062 59.902344 188.914062 Z M 205.476562 245.375 L 197.3125 245.375 L 197.3125 213.222656 C 197.3125 211.175781 196.238281 209.320312 194.488281 208.320312 L 161.726562 189.390625 C 159.027344 187.867188 155.574219 188.773438 154.019531 191.484375 L 147.117188 203.421875 C 142.128906 212.058594 129.144531 210.414062 126.542969 200.710938 C 125.765625 197.808594 126.152344 194.765625 127.640625 192.195312 L 134.554688 180.210938 C 136.109375 177.546875 135.179688 174.074219 132.480469 172.503906 L 99.710938 153.621094 C 97.015625 152.050781 93.566406 152.953125 92 155.664062 C 84.566406 168.507812 79.792969 182.351562 77.75 196.90625 L 70.519531 192.671875 C 72.003906 188.203125 70.195312 183.160156 65.957031 180.6875 L 50.503906 171.789062 C 45.660156 168.984375 39.441406 170.648438 36.640625 175.5 L 5.734375 229.011719 C 2.921875 233.914062 4.625 240.09375 9.445312 242.902344 L 24.898438 251.796875 C 29.199219 254.277344 34.578125 253.289062 37.777344 249.511719 L 46.90625 254.746094 C 49.261719 256.125 50.941406 257.644531 52.519531 259.882812 C 78.371094 296.175781 92.957031 307.828125 129.679688 328.996094 C 136.851562 333.136719 153.730469 332.460938 158.832031 324.953125 C 159.09375 324.574219 159.363281 324.144531 159.644531 323.765625 C 170.003906 326.761719 180.757812 328.285156 191.667969 328.285156 C 194.78125 328.285156 197.3125 325.761719 197.3125 322.625 L 197.3125 290.421875 L 205.476562 290.421875 C 217.890625 290.421875 227.992188 280.335938 227.992188 267.921875 C 227.992188 255.488281 217.867188 245.375 205.476562 245.375 Z M 153.0625 97.964844 C 146.246094 104.054688 140.285156 111 135.269531 118.707031 L 163.007812 134.734375 C 165.730469 136.269531 166.617188 139.777344 165.078125 142.441406 L 158.171875 154.378906 C 155.078125 159.753906 156.921875 166.652344 162.285156 169.742188 C 167.644531 172.816406 174.550781 170.984375 177.644531 165.605469 L 184.542969 153.664062 C 186.101562 150.953125 189.554688 150.050781 192.253906 151.621094 L 222.195312 168.886719 L 247.246094 154.425781 L 243.164062 147.339844 C 236.949219 136.589844 240.652344 122.796875 251.40625 116.5625 C 262.046875 110.414062 275.914062 114.035156 282.175781 124.839844 L 286.261719 131.878906 L 309.136719 118.703125 C 302.074219 107.8125 293.140625 98.535156 282.515625 90.972656 L 242.910156 113.375 C 235.324219 117.660156 225.855469 115.128906 221.488281 107.570312 C 217.148438 100.0625 219.757812 90.441406 227.242188 86.121094 L 241.660156 77.796875 C 241.675781 77.507812 241.699219 77.273438 241.714844 77.082031 C 241.765625 76.464844 241.871094 75.320312 238.765625 72.945312 C 209.28125 68.1875 178.578125 76.652344 155.679688 95.726562 Z M 158.535156 73.613281 C 194.164062 53.015625 209.859375 46.878906 252.421875 42.789062 C 256.726562 42.410156 260.476562 41.21875 264.222656 39.03125 L 273.214844 33.847656 L 294.71875 71.09375 L 237.3125 103.582031 C 235.195312 104.769531 232.476562 104.054688 231.261719 101.960938 C 230.042969 99.824219 230.769531 97.109375 232.886719 95.875 L 247.761719 87.3125 C 251.019531 85.410156 252.949219 82.078125 252.9375 78.320312 C 252.9375 78.226562 252.945312 78.132812 252.949219 78.082031 C 253.296875 74.136719 252.621094 68.855469 244.277344 62.957031 C 243.589844 62.484375 242.8125 62.195312 241.992188 62.007812 C 210.480469 56.535156 177.566406 64.71875 152.261719 84.03125 C 153.207031 80.414062 156.378906 74.847656 158.535156 73.613281 Z M 292.25 13.109375 L 322.023438 64.671875 L 308.542969 72.472656 L 278.769531 20.910156 Z M 124.601562 125.601562 L 152.480469 141.679688 L 148.394531 148.769531 C 139.625 163.96875 150.945312 182.539062 167.839844 182.539062 C 175.863281 182.539062 183.382812 178.234375 187.417969 171.265625 L 191.496094 164.226562 L 219.375 180.304688 C 221.117188 181.304688 223.269531 181.304688 225.015625 180.304688 L 257.773438 161.375 C 260.464844 159.804688 261.394531 156.378906 259.839844 153.667969 L 252.9375 141.730469 C 249.835938 136.355469 251.679688 129.457031 257.046875 126.363281 C 262.417969 123.273438 269.300781 125.128906 272.402344 130.457031 L 279.308594 142.441406 C 280.867188 145.152344 284.3125 146.058594 287.011719 144.488281 L 319.792969 125.554688 C 322.484375 124.035156 323.40625 120.5625 321.859375 117.851562 C 314.445312 105.007812 304.839844 93.972656 293.253906 84.886719 L 300.574219 80.75 C 303.796875 84.371094 308.960938 85.21875 313.199219 82.792969 L 328.652344 73.898438 C 333.5 71.09375 335.164062 64.863281 332.363281 60.011719 L 301.453125 6.5 C 298.664062 1.648438 292.441406 -0.0195312 287.59375 2.742188 L 272.140625 11.679688 C 267.796875 14.203125 266.023438 19.433594 267.707031 24 L 258.585938 29.28125 C 256.226562 30.613281 254.058594 31.328125 251.351562 31.5625 C 206.996094 35.796875 189.621094 42.648438 152.894531 63.8125 C 145.90625 67.855469 137.808594 82.839844 141.84375 91.117188 C 142.058594 91.546875 142.257812 91.972656 142.46875 92.402344 C 134.699219 99.867188 128.003906 108.429688 122.542969 117.894531 C 120.984375 120.558594 121.910156 124.035156 124.601562 125.601562 Z M 345.191406 362.578125 L 285.644531 362.578125 L 285.644531 347.023438 L 345.191406 347.023438 Z M 245.308594 324.382812 L 245.308594 297.984375 L 253.464844 297.984375 C 265.886719 297.984375 275.992188 287.851562 275.992188 275.4375 C 275.992188 263.023438 265.886719 252.9375 253.464844 252.9375 L 245.308594 252.9375 L 245.308594 224.019531 L 275.242188 206.703125 C 277.964844 205.167969 278.851562 201.660156 277.3125 199 L 270.40625 187.058594 C 265.492188 178.585938 273.226562 167.953125 283.042969 170.601562 C 285.953125 171.363281 288.386719 173.21875 289.875 175.832031 L 296.773438 187.773438 C 298.332031 190.484375 301.785156 191.386719 304.484375 189.816406 L 332.226562 173.835938 C 336.566406 182.351562 339.660156 191.339844 341.496094 200.710938 C 347.414062 230.726562 339.476562 262.59375 320.121094 286.332031 C 316.496094 287.804688 315.566406 287.1875 315.050781 286.804688 C 314.878906 286.710938 314.683594 286.566406 314.464844 286.425781 L 314.464844 269.777344 C 314.464844 261.070312 307.414062 254.03125 298.746094 254.03125 C 290.085938 254.03125 283.039062 261.070312 283.039062 269.730469 L 282.628906 315.203125 C 270.769531 320.625 258.261719 323.71875 245.308594 324.382812 Z M 353.777344 205.894531 C 357.835938 237.429688 348.464844 270.0625 327.945312 294.558594 C 327.410156 295.226562 326.742188 295.75 325.980469 296.082031 C 316.703125 300.363281 311.804688 298.316406 308.578125 296.082031 C 308.507812 295.984375 308.441406 295.9375 308.386719 295.9375 C 305.117188 294.035156 303.175781 290.707031 303.175781 286.949219 L 303.175781 269.777344 C 303.175781 267.304688 301.1875 265.351562 298.742188 265.351562 C 296.308594 265.351562 294.320312 267.304688 294.320312 269.777344 L 293.734375 335.703125 L 336.742188 335.703125 L 336.742188 325.335938 C 336.742188 321.007812 337.578125 317.152344 339.375 313.207031 C 357.132812 274.34375 359.652344 257.648438 359.652344 216.503906 C 359.652344 214.027344 356.402344 208.464844 353.777344 205.894531 Z M 348.027344 335.894531 C 352.8125 336.703125 356.480469 340.839844 356.480469 345.882812 L 356.480469 363.722656 C 356.480469 369.285156 351.929688 373.851562 346.328125 373.851562 L 284.507812 373.851562 C 278.914062 373.851562 274.359375 369.285156 274.359375 363.722656 L 274.359375 345.882812 C 274.359375 340.984375 277.839844 336.894531 282.441406 335.941406 L 282.515625 327.523438 C 268.917969 333.039062 254.578125 335.847656 239.773438 335.847656 C 236.582031 335.847656 234.019531 333.3125 234.019531 330.1875 L 234.019531 292.324219 C 234.019531 289.230469 236.539062 286.710938 239.664062 286.710938 L 253.464844 286.710938 C 259.664062 286.710938 264.707031 281.667969 264.707031 275.4375 C 264.707031 269.253906 259.664062 264.210938 253.464844 264.210938 L 239.664062 264.210938 C 236.539062 264.210938 234.019531 261.6875 234.019531 258.550781 L 234.019531 220.734375 C 234.019531 218.734375 235.089844 216.878906 236.84375 215.835938 L 264.714844 199.757812 L 260.628906 192.667969 C 254.433594 181.9375 258.113281 168.148438 268.875 161.941406 C 279.625 155.742188 293.433594 159.410156 299.648438 170.171875 L 303.726562 177.257812 L 331.601562 161.132812 C 334.296875 159.5625 337.753906 160.511719 339.308594 163.226562 C 344.769531 172.644531 348.820312 182.726562 351.410156 193.191406 C 351.886719 193.238281 352.371094 193.289062 352.84375 193.289062 C 362 193.953125 370.9375 208.460938 370.9375 216.5 C 370.9375 258.929688 368.148438 277.382812 349.644531 317.910156 C 348.511719 320.386719 348.027344 322.621094 348.027344 325.332031 Z M 348.027344 335.894531 "/></g><g clip-rule="nonzero" clip-path="url(#9ae66e8825)"><path style=" stroke:none;fill-rule:evenodd;fill:#ffffff;fill-opacity:1;" d="M 205.476562 279.148438 L 191.667969 279.148438 C 188.546875 279.148438 186.023438 281.667969 186.023438 284.808594 L 186.023438 316.820312 C 176.855469 316.34375 167.84375 314.632812 159.167969 311.777344 C 129.695312 302.074219 105.667969 279.101562 94.636719 250.085938 C 95.15625 246.183594 96.175781 245.707031 96.746094 245.472656 C 96.941406 245.375 97.160156 245.28125 97.394531 245.136719 L 111.8125 253.460938 C 123.882812 260.429688 138.4375 249.28125 134.839844 235.816406 C 133.753906 231.722656 131.15625 228.347656 127.574219 226.300781 L 88.367188 203.183594 C 89.601562 190.199219 93.191406 177.832031 99.082031 166.273438 L 121.957031 179.496094 L 117.871094 186.535156 C 111.660156 197.285156 115.363281 211.082031 126.117188 217.3125 C 136.875 223.542969 150.675781 219.832031 156.890625 209.082031 L 160.96875 201.996094 L 186.027344 216.457031 L 186.027344 251.035156 C 186.027344 254.128906 188.546875 256.699219 191.667969 256.699219 L 205.476562 256.699219 C 211.699219 256.699219 216.707031 261.746094 216.707031 267.921875 C 216.707031 274.105469 211.667969 279.148438 205.476562 279.148438 Z M 135.320312 319.246094 C 137.480469 320.480469 143.90625 320.433594 147.472656 319.484375 C 118.109375 307.210938 94.570312 282.761719 83.570312 252.746094 C 83.285156 251.9375 83.183594 251.128906 83.257812 250.273438 C 84.191406 240.09375 88.414062 236.90625 91.976562 235.242188 C 92.0625 235.195312 92.128906 235.148438 92.195312 235.148438 C 95.445312 233.246094 99.316406 233.246094 102.578125 235.101562 L 117.453125 243.710938 C 119.570312 244.945312 122.285156 244.1875 123.503906 242.09375 C 124.703125 240 124.023438 237.28125 121.886719 236.050781 L 65.0625 202.566406 L 43.554688 239.808594 L 52.550781 244.996094 C 56.292969 247.132812 59.203125 249.796875 61.714844 253.316406 C 86.527344 288.136719 99.699219 298.648438 135.320312 319.246094 Z M 29.5625 241.476562 L 16.074219 233.675781 L 45.847656 182.113281 L 59.332031 189.914062 Z M 59.902344 188.914062 L 59.894531 188.914062 C 59.894531 188.914062 59.894531 188.914062 59.902344 188.914062 Z M 205.476562 245.375 L 197.3125 245.375 L 197.3125 213.222656 C 197.3125 211.175781 196.238281 209.320312 194.488281 208.320312 L 161.726562 189.390625 C 159.027344 187.867188 155.574219 188.773438 154.019531 191.484375 L 147.117188 203.421875 C 142.128906 212.058594 129.144531 210.414062 126.542969 200.710938 C 125.765625 197.808594 126.152344 194.765625 127.640625 192.195312 L 134.554688 180.210938 C 136.109375 177.546875 135.179688 174.074219 132.480469 172.503906 L 99.710938 153.621094 C 97.015625 152.050781 93.566406 152.953125 92 155.664062 C 84.566406 168.507812 79.792969 182.351562 77.75 196.90625 L 70.519531 192.671875 C 72.003906 188.203125 70.195312 183.160156 65.957031 180.6875 L 50.503906 171.789062 C 45.660156 168.984375 39.441406 170.648438 36.640625 175.5 L 5.734375 229.011719 C 2.921875 233.914062 4.625 240.09375 9.445312 242.902344 L 24.898438 251.796875 C 29.199219 254.277344 34.578125 253.289062 37.777344 249.511719 L 46.90625 254.746094 C 49.261719 256.125 50.941406 257.644531 52.519531 259.882812 C 78.371094 296.175781 92.957031 307.828125 129.679688 328.996094 C 136.851562 333.136719 153.730469 332.460938 158.832031 324.953125 C 159.09375 324.574219 159.363281 324.144531 159.644531 323.765625 C 170.003906 326.761719 180.757812 328.285156 191.667969 328.285156 C 194.78125 328.285156 197.3125 325.761719 197.3125 322.625 L 197.3125 290.421875 L 205.476562 290.421875 C 217.890625 290.421875 227.992188 280.335938 227.992188 267.921875 C 227.992188 255.488281 217.867188 245.375 205.476562 245.375 Z M 153.0625 97.964844 C 146.246094 104.054688 140.285156 111 135.269531 118.707031 L 163.007812 134.734375 C 165.730469 136.269531 166.617188 139.777344 165.078125 142.441406 L 158.171875 154.378906 C 155.078125 159.753906 156.921875 166.652344 162.285156 169.742188 C 167.644531 172.816406 174.550781 170.984375 177.644531 165.605469 L 184.542969 153.664062 C 186.101562 150.953125 189.554688 150.050781 192.253906 151.621094 L 222.195312 168.886719 L 247.246094 154.425781 L 243.164062 147.339844 C 236.949219 136.589844 240.652344 122.796875 251.40625 116.5625 C 262.046875 110.414062 275.914062 114.035156 282.175781 124.839844 L 286.261719 131.878906 L 309.136719 118.703125 C 302.074219 107.8125 293.140625 98.535156 282.515625 90.972656 L 242.910156 113.375 C 235.324219 117.660156 225.855469 115.128906 221.488281 107.570312 C 217.148438 100.0625 219.757812 90.441406 227.242188 86.121094 L 241.660156 77.796875 C 241.675781 77.507812 241.699219 77.273438 241.714844 77.082031 C 241.765625 76.464844 241.871094 75.320312 238.765625 72.945312 C 209.28125 68.1875 178.578125 76.652344 155.679688 95.726562 Z M 158.535156 73.613281 C 194.164062 53.015625 209.859375 46.878906 252.421875 42.789062 C 256.726562 42.410156 260.476562 41.21875 264.222656 39.03125 L 273.214844 33.847656 L 294.71875 71.09375 L 237.3125 103.582031 C 235.195312 104.769531 232.476562 104.054688 231.261719 101.960938 C 230.042969 99.824219 230.769531 97.109375 232.886719 95.875 L 247.761719 87.3125 C 251.019531 85.410156 252.949219 82.078125 252.9375 78.320312 C 252.9375 78.226562 252.945312 78.132812 252.949219 78.082031 C 253.296875 74.136719 252.621094 68.855469 244.277344 62.957031 C 243.589844 62.484375 242.8125 62.195312 241.992188 62.007812 C 210.480469 56.535156 177.566406 64.71875 152.261719 84.03125 C 153.207031 80.414062 156.378906 74.847656 158.535156 73.613281 Z M 292.25 13.109375 L 322.023438 64.671875 L 308.542969 72.472656 L 278.769531 20.910156 Z M 124.601562 125.601562 L 152.480469 141.679688 L 148.394531 148.769531 C 139.625 163.96875 150.945312 182.539062 167.839844 182.539062 C 175.863281 182.539062 183.382812 178.234375 187.417969 171.265625 L 191.496094 164.226562 L 219.375 180.304688 C 221.117188 181.304688 223.269531 181.304688 225.015625 180.304688 L 257.773438 161.375 C 260.464844 159.804688 261.394531 156.378906 259.839844 153.667969 L 252.9375 141.730469 C 249.835938 136.355469 251.679688 129.457031 257.046875 126.363281 C 262.417969 123.273438 269.300781 125.128906 272.402344 130.457031 L 279.308594 142.441406 C 280.867188 145.152344 284.3125 146.058594 287.011719 144.488281 L 319.792969 125.554688 C 322.484375 124.035156 323.40625 120.5625 321.859375 117.851562 C 314.445312 105.007812 304.839844 93.972656 293.253906 84.886719 L 300.574219 80.75 C 303.796875 84.371094 308.960938 85.21875 313.199219 82.792969 L 328.652344 73.898438 C 333.5 71.09375 335.164062 64.863281 332.363281 60.011719 L 301.453125 6.5 C 298.664062 1.648438 292.441406 -0.0195312 287.59375 2.742188 L 272.140625 11.679688 C 267.796875 14.203125 266.023438 19.433594 267.707031 24 L 258.585938 29.28125 C 256.226562 30.613281 254.058594 31.328125 251.351562 31.5625 C 206.996094 35.796875 189.621094 42.648438 152.894531 63.8125 C 145.90625 67.855469 137.808594 82.839844 141.84375 91.117188 C 142.058594 91.546875 142.257812 91.972656 142.46875 92.402344 C 134.699219 99.867188 128.003906 108.429688 122.542969 117.894531 C 120.984375 120.558594 121.910156 124.035156 124.601562 125.601562 Z M 345.191406 362.578125 L 285.644531 362.578125 L 285.644531 347.023438 L 345.191406 347.023438 Z M 245.308594 324.382812 L 245.308594 297.984375 L 253.464844 297.984375 C 265.886719 297.984375 275.992188 287.851562 275.992188 275.4375 C 275.992188 263.023438 265.886719 252.9375 253.464844 252.9375 L 245.308594 252.9375 L 245.308594 224.019531 L 275.242188 206.703125 C 277.964844 205.167969 278.851562 201.660156 277.3125 199 L 270.40625 187.058594 C 265.492188 178.585938 273.226562 167.953125 283.042969 170.601562 C 285.953125 171.363281 288.386719 173.21875 289.875 175.832031 L 296.773438 187.773438 C 298.332031 190.484375 301.785156 191.386719 304.484375 189.816406 L 332.226562 173.835938 C 336.566406 182.351562 339.660156 191.339844 341.496094 200.710938 C 347.414062 230.726562 339.476562 262.59375 320.121094 286.332031 C 316.496094 287.804688 315.566406 287.1875 315.050781 286.804688 C 314.878906 286.710938 314.683594 286.566406 314.464844 286.425781 L 314.464844 269.777344 C 314.464844 261.070312 307.414062 254.03125 298.746094 254.03125 C 290.085938 254.03125 283.039062 261.070312 283.039062 269.730469 L 282.628906 315.203125 C 270.769531 320.625 258.261719 323.71875 245.308594 324.382812 Z M 353.777344 205.894531 C 357.835938 237.429688 348.464844 270.0625 327.945312 294.558594 C 327.410156 295.226562 326.742188 295.75 325.980469 296.082031 C 316.703125 300.363281 311.804688 298.316406 308.578125 296.082031 C 308.507812 295.984375 308.441406 295.9375 308.386719 295.9375 C 305.117188 294.035156 303.175781 290.707031 303.175781 286.949219 L 303.175781 269.777344 C 303.175781 267.304688 301.1875 265.351562 298.742188 265.351562 C 296.308594 265.351562 294.320312 267.304688 294.320312 269.777344 L 293.734375 335.703125 L 336.742188 335.703125 L 336.742188 325.335938 C 336.742188 321.007812 337.578125 317.152344 339.375 313.207031 C 357.132812 274.34375 359.652344 257.648438 359.652344 216.503906 C 359.652344 214.027344 356.402344 208.464844 353.777344 205.894531 Z M 348.027344 335.894531 C 352.8125 336.703125 356.480469 340.839844 356.480469 345.882812 L 356.480469 363.722656 C 356.480469 369.285156 351.929688 373.851562 346.328125 373.851562 L 284.507812 373.851562 C 278.914062 373.851562 274.359375 369.285156 274.359375 363.722656 L 274.359375 345.882812 C 274.359375 340.984375 277.839844 336.894531 282.441406 335.941406 L 282.515625 327.523438 C 268.917969 333.039062 254.578125 335.847656 239.773438 335.847656 C 236.582031 335.847656 234.019531 333.3125 234.019531 330.1875 L 234.019531 292.324219 C 234.019531 289.230469 236.539062 286.710938 239.664062 286.710938 L 253.464844 286.710938 C 259.664062 286.710938 264.707031 281.667969 264.707031 275.4375 C 264.707031 269.253906 259.664062 264.210938 253.464844 264.210938 L 239.664062 264.210938 C 236.539062 264.210938 234.019531 261.6875 234.019531 258.550781 L 234.019531 220.734375 C 234.019531 218.734375 235.089844 216.878906 236.84375 215.835938 L 264.714844 199.757812 L 260.628906 192.667969 C 254.433594 181.9375 258.113281 168.148438 268.875 161.941406 C 279.625 155.742188 293.433594 159.410156 299.648438 170.171875 L 303.726562 177.257812 L 331.601562 161.132812 C 334.296875 159.5625 337.753906 160.511719 339.308594 163.226562 C 344.769531 172.644531 348.820312 182.726562 351.410156 193.191406 C 351.886719 193.238281 352.371094 193.289062 352.84375 193.289062 C 362 193.953125 370.9375 208.460938 370.9375 216.5 C 370.9375 258.929688 368.148438 277.382812 349.644531 317.910156 C 348.511719 320.386719 348.027344 322.621094 348.027344 325.332031 Z M 348.027344 335.894531 "/></g></g></svg>