<svg xmlns="http://www.w3.org/2000/svg" xmlns:xlink="http://www.w3.org/1999/xlink" width="500" zoomAndPan="magnify" viewBox="0 0 375.12 383.03998" height="500" preserveAspectRatio="xMidYMid meet" version="1.2"><defs><clipPath id="2c2742588c"><path d="M 0.03125 89 L 37 89 L 37 163 L 0.03125 163 Z M 0.03125 89 "/></clipPath><clipPath id="0b1736191b"><path d="M 29 24.78125 L 77 24.78125 L 77 90 L 29 90 Z M 29 24.78125 "/></clipPath><clipPath id="cc253b8209"><path d="M 337 89 L 374.09375 89 L 374.09375 163 L 337 163 Z M 337 89 "/></clipPath><clipPath id="34524cfb03"><path d="M 298 24.78125 L 345 24.78125 L 345 90 L 298 90 Z M 298 24.78125 "/></clipPath><clipPath id="113902df4a"><path d="M 163 86 L 191.550781 86 L 191.550781 169 L 163 169 Z M 163 86 "/></clipPath><clipPath id="dbc8fa0464"><path d="M 20 229 L 191.550781 229 L 191.550781 347 L 20 347 Z M 20 229 "/></clipPath><clipPath id="a9d9a8321f"><path d="M 0.03125 89 L 37 89 L 37 163 L 0.03125 163 Z M 0.03125 89 "/></clipPath><clipPath id="1e6c81a595"><path d="M 29 24.78125 L 77 24.78125 L 77 90 L 29 90 Z M 29 24.78125 "/></clipPath><clipPath id="6d4e1804e9"><path d="M 178 179 L 191.550781 179 L 191.550781 227 L 178 227 Z M 178 179 "/></clipPath></defs><g id="9cad1ee613"><path style=" stroke:none;fill-rule:nonzero;fill:#ef9011;fill-opacity:1;" d="M 216.578125 172.128906 C 216.578125 172.128906 235.863281 181.769531 236.15625 181.769531 C 236.15625 181.769531 247.554688 186.738281 248.429688 196.382812 L 248.429688 244.015625 C 248.429688 247.230469 251.0625 249.863281 254.277344 249.863281 C 257.488281 249.863281 260.121094 247.230469 260.121094 244.015625 C 260.121094 244.015625 260.121094 195.796875 260.121094 195.507812 C 259.242188 179.433594 243.171875 171.835938 240.832031 170.664062 L 225.34375 163.066406 C 223.007812 166.574219 220.082031 169.496094 216.578125 172.128906 Z M 216.578125 172.128906 "/><path style=" stroke:none;fill-rule:nonzero;fill:#ef9011;fill-opacity:1;" d="M 192.90625 168.035156 C 208.980469 168.035156 222.128906 154.886719 222.128906 138.8125 L 222.128906 115.433594 C 222.128906 99.359375 208.980469 86.210938 192.90625 86.210938 C 176.832031 86.210938 163.683594 99.359375 163.683594 115.433594 L 163.683594 138.8125 C 163.683594 154.886719 176.832031 168.035156 192.90625 168.035156 Z M 192.90625 168.035156 "/><path style=" stroke:none;fill-rule:nonzero;fill:#ef9011;fill-opacity:1;" d="M 137.382812 196.089844 C 137.964844 186.445312 149.363281 181.480469 149.65625 181.480469 C 149.65625 181.480469 169.234375 171.835938 169.234375 171.835938 C 165.726562 169.496094 162.804688 166.574219 160.46875 163.066406 L 144.980469 170.957031 C 142.933594 171.835938 126.859375 179.433594 125.691406 195.796875 C 125.691406 195.796875 125.691406 221.222656 125.691406 221.222656 C 129.492188 221.515625 133.582031 221.808594 137.382812 222.390625 Z M 137.382812 196.089844 "/><path style=" stroke:none;fill-rule:nonzero;fill:#ef9011;fill-opacity:1;" d="M 329.964844 245.476562 C 324.414062 241.972656 316.8125 241.386719 310.09375 243.726562 C 301.035156 235.542969 287.296875 234.082031 277.945312 236.417969 C 275.902344 234.957031 274.148438 233.496094 271.808594 232.621094 L 271.808594 246.941406 C 271.808594 250.152344 270.933594 253.078125 269.472656 255.414062 L 280.285156 248.402344 C 280.578125 248.109375 287.589844 243.433594 298.695312 250.152344 L 267.425781 269.734375 C 268.886719 274.117188 268.886719 278.5 268.011719 283.175781 L 312.429688 255.121094 C 316.230469 253.660156 320.613281 253.660156 323.535156 255.414062 C 325.875 256.875 327.335938 260.089844 327.042969 262.71875 C 326.75 265.933594 323.535156 267.6875 321.199219 269.148438 C 320.90625 269.148438 223.296875 331.394531 223.007812 331.6875 C 214.824219 336.949219 203.71875 333.441406 195.242188 330.8125 L 123.355469 310.0625 C 119.261719 308.601562 114.585938 308.601562 110.203125 309.769531 L 84.484375 317.367188 L 84.484375 250.445312 L 96.175781 246.941406 C 123.0625 239.050781 151.699219 248.691406 179.464844 257.753906 C 188.523438 260.675781 207.226562 266.226562 207.226562 266.226562 C 213.65625 267.980469 220.082031 269.734375 227.097656 270.609375 C 230.898438 271.195312 246.675781 271.195312 244.925781 278.5 C 243.753906 282.882812 235.863281 288.730469 229.433594 289.605469 C 214.238281 291.945312 194.953125 292.234375 167.773438 279.960938 C 164.851562 278.5 161.34375 279.960938 159.882812 282.882812 C 158.421875 285.808594 159.882812 289.3125 162.804688 290.773438 C 183.261719 300.125 199.628906 302.757812 213.363281 302.757812 C 219.792969 302.757812 225.636719 302.171875 231.1875 301.296875 C 241.417969 299.835938 253.984375 291.359375 256.320312 281.421875 C 257.199219 277.625 257.488281 270.609375 249.015625 264.472656 C 243.171875 260.382812 235.863281 260.382812 228.851562 259.214844 C 222.714844 258.335938 208.980469 254.828125 208.980469 254.828125 C 200.796875 252.785156 192.320312 249.863281 183.261719 246.941406 C 155.207031 237.589844 123.355469 227.359375 92.960938 236.125 L 83.023438 239.050781 C 80.394531 233.789062 74.84375 229.988281 68.121094 229.988281 L 36.851562 229.988281 C 27.792969 229.40625 20.488281 236.125 20.488281 244.601562 L 20.488281 325.550781 C 20.488281 333.734375 27.792969 340.746094 36.851562 340.746094 L 68.414062 340.746094 C 75.425781 340.746094 81.5625 336.363281 83.902344 330.519531 L 114.003906 321.460938 C 115.753906 320.875 118.09375 320.875 120.140625 321.460938 L 192.027344 342.207031 C 203.71875 346.007812 217.453125 349.222656 228.558594 342.207031 C 228.558594 342.207031 326.457031 279.960938 327.335938 279.378906 C 332.886719 275.871094 338.148438 270.609375 338.730469 263.597656 C 339.609375 256.582031 336.101562 249.277344 329.964844 245.476562 Z M 52.632812 270.320312 C 49.417969 270.320312 46.789062 267.6875 46.789062 264.472656 C 46.789062 261.257812 49.417969 258.628906 52.632812 258.628906 C 55.847656 258.628906 58.476562 261.257812 58.476562 264.472656 C 58.476562 267.6875 55.847656 270.320312 52.632812 270.320312 Z M 52.632812 270.320312 "/><path style=" stroke:none;fill-rule:nonzero;fill:#ef9011;fill-opacity:1;" d="M 85.070312 105.496094 C 85.070312 105.496094 93.253906 109.296875 93.546875 116.019531 L 93.546875 156.347656 C 93.546875 159.5625 96.175781 162.191406 99.390625 162.191406 C 102.605469 162.191406 105.234375 159.5625 105.234375 156.347656 C 105.234375 156.347656 105.234375 115.726562 105.234375 115.726562 C 104.359375 102.28125 91.792969 96.144531 90.039062 94.976562 L 78.640625 89.132812 C 75.71875 92.347656 72.210938 94.976562 68.414062 97.023438 C 68.414062 97.023438 84.777344 105.496094 85.070312 105.496094 Z M 85.070312 105.496094 "/><g clip-rule="nonzero" clip-path="url(#2c2742588c)"><path style=" stroke:none;fill-rule:nonzero;fill:#ef9011;fill-opacity:1;" d="M 26.625 89.132812 L 15.226562 94.976562 C 13.179688 95.851562 0.613281 102.28125 0.03125 115.726562 C 0.03125 115.726562 0.03125 156.347656 0.03125 156.347656 C 0.03125 159.5625 2.660156 162.191406 5.875 162.191406 C 9.089844 162.191406 11.71875 159.5625 11.71875 156.347656 L 11.71875 116.019531 C 12.304688 109.296875 20.195312 105.496094 20.195312 105.496094 C 20.195312 105.496094 36.851562 97.023438 36.851562 97.023438 C 33.050781 94.976562 29.546875 92.347656 26.625 89.132812 Z M 26.625 89.132812 "/></g><g clip-rule="nonzero" clip-path="url(#0b1736191b)"><path style=" stroke:none;fill-rule:nonzero;fill:#ef9011;fill-opacity:1;" d="M 52.632812 89.132812 C 65.492188 89.132812 76.011719 78.613281 76.011719 65.753906 L 76.011719 48.21875 C 76.011719 35.359375 65.492188 24.839844 52.632812 24.839844 C 39.773438 24.839844 29.253906 35.359375 29.253906 48.21875 L 29.253906 65.753906 C 29.253906 78.613281 39.773438 89.132812 52.632812 89.132812 Z M 52.632812 89.132812 "/></g><g clip-rule="nonzero" clip-path="url(#cc253b8209)"><path style=" stroke:none;fill-rule:nonzero;fill:#ef9011;fill-opacity:1;" d="M 374.09375 115.726562 C 373.214844 102.28125 360.648438 96.144531 358.894531 94.976562 L 347.5 89.132812 C 344.578125 92.347656 341.070312 94.976562 337.269531 97.023438 C 337.269531 97.023438 353.929688 105.496094 353.929688 105.496094 C 353.929688 105.496094 362.109375 109.296875 362.402344 116.019531 L 362.402344 156.347656 C 362.402344 159.5625 365.03125 162.191406 368.246094 162.191406 C 371.460938 162.191406 374.09375 159.5625 374.09375 156.347656 C 374.09375 156.347656 374.09375 115.726562 374.09375 115.726562 Z M 374.09375 115.726562 "/></g><path style=" stroke:none;fill-rule:nonzero;fill:#ef9011;fill-opacity:1;" d="M 274.730469 162.191406 C 277.945312 162.191406 280.578125 159.5625 280.578125 156.347656 L 280.578125 116.019531 C 281.160156 109.296875 289.050781 105.496094 289.050781 105.496094 C 289.050781 105.496094 305.710938 97.023438 305.710938 97.023438 C 301.910156 94.976562 298.402344 92.347656 295.480469 89.132812 L 284.082031 94.976562 C 282.039062 95.851562 269.472656 102.28125 268.886719 115.726562 C 268.886719 115.726562 268.886719 156.347656 268.886719 156.347656 C 268.886719 159.5625 271.515625 162.191406 274.730469 162.191406 Z M 274.730469 162.191406 "/><g clip-rule="nonzero" clip-path="url(#34524cfb03)"><path style=" stroke:none;fill-rule:nonzero;fill:#ef9011;fill-opacity:1;" d="M 321.488281 89.132812 C 334.347656 89.132812 344.867188 78.613281 344.867188 65.753906 L 344.867188 48.21875 C 344.867188 35.359375 334.347656 24.839844 321.488281 24.839844 C 308.632812 24.839844 298.109375 35.359375 298.109375 48.21875 L 298.109375 65.753906 C 298.109375 78.613281 308.632812 89.132812 321.488281 89.132812 Z M 321.488281 89.132812 "/></g><path style=" stroke:none;fill-rule:nonzero;fill:#ef9011;fill-opacity:1;" d="M 192.90625 179.726562 C 190.566406 179.726562 187.9375 179.433594 185.601562 179.140625 L 178.878906 210.996094 C 178.585938 212.746094 178.878906 214.792969 180.339844 216.253906 L 188.523438 225.023438 C 190.859375 227.359375 194.660156 227.359375 196.996094 225.023438 L 205.179688 216.253906 C 206.347656 214.792969 206.933594 213.039062 206.640625 210.996094 L 199.917969 179.140625 C 197.875 179.433594 195.242188 179.726562 192.90625 179.726562 Z M 192.90625 179.726562 "/><path style=" stroke:none;fill-rule:nonzero;fill:#ef9011;fill-opacity:1;" d="M 52.632812 100.820312 C 50.003906 100.820312 47.371094 100.527344 45.035156 99.945312 L 38.898438 127.121094 C 38.3125 129.167969 38.898438 131.214844 40.359375 132.675781 L 48.542969 140.859375 C 50.878906 143.195312 54.386719 143.195312 56.722656 140.859375 L 64.90625 132.675781 C 66.367188 131.214844 66.953125 129.167969 66.367188 127.121094 L 59.9375 99.945312 C 57.894531 100.527344 55.261719 100.820312 52.632812 100.820312 Z M 52.632812 100.820312 "/><path style=" stroke:none;fill-rule:nonzero;fill:#ef9011;fill-opacity:1;" d="M 321.488281 100.820312 C 318.859375 100.820312 316.230469 100.527344 313.890625 99.945312 L 307.460938 127.121094 C 306.878906 129.167969 307.460938 131.214844 308.921875 132.675781 L 317.105469 140.859375 C 319.445312 143.195312 322.949219 143.195312 325.289062 140.859375 L 333.472656 132.675781 C 334.933594 131.214844 335.515625 129.167969 334.933594 127.121094 L 328.503906 99.945312 C 326.75 100.527344 324.121094 100.820312 321.488281 100.820312 Z M 321.488281 100.820312 "/><g clip-rule="nonzero" clip-path="url(#113902df4a)"><path style=" stroke:none;fill-rule:nonzero;fill:#ffffff;fill-opacity:1;" d="M 192.90625 168.035156 C 208.980469 168.035156 222.128906 154.886719 222.128906 138.8125 L 222.128906 115.433594 C 222.128906 99.359375 208.980469 86.210938 192.90625 86.210938 C 176.832031 86.210938 163.683594 99.359375 163.683594 115.433594 L 163.683594 138.8125 C 163.683594 154.886719 176.832031 168.035156 192.90625 168.035156 Z M 192.90625 168.035156 "/></g><path style=" stroke:none;fill-rule:nonzero;fill:#ffffff;fill-opacity:1;" d="M 137.382812 196.089844 C 137.964844 186.445312 149.363281 181.480469 149.65625 181.480469 C 149.65625 181.480469 169.234375 171.835938 169.234375 171.835938 C 165.726562 169.496094 162.804688 166.574219 160.46875 163.066406 L 144.980469 170.957031 C 142.933594 171.835938 126.859375 179.433594 125.691406 195.796875 C 125.691406 195.796875 125.691406 221.222656 125.691406 221.222656 C 129.492188 221.515625 133.582031 221.808594 137.382812 222.390625 Z M 137.382812 196.089844 "/><g clip-rule="nonzero" clip-path="url(#dbc8fa0464)"><path style=" stroke:none;fill-rule:nonzero;fill:#ffffff;fill-opacity:1;" d="M 329.964844 245.476562 C 324.414062 241.972656 316.8125 241.386719 310.09375 243.726562 C 301.035156 235.542969 287.296875 234.082031 277.945312 236.417969 C 275.902344 234.957031 274.148438 233.496094 271.808594 232.621094 L 271.808594 246.941406 C 271.808594 250.152344 270.933594 253.078125 269.472656 255.414062 L 280.285156 248.402344 C 280.578125 248.109375 287.589844 243.433594 298.695312 250.152344 L 267.425781 269.734375 C 268.886719 274.117188 268.886719 278.5 268.011719 283.175781 L 312.429688 255.121094 C 316.230469 253.660156 320.613281 253.660156 323.535156 255.414062 C 325.875 256.875 327.335938 260.089844 327.042969 262.71875 C 326.75 265.933594 323.535156 267.6875 321.199219 269.148438 C 320.90625 269.148438 223.296875 331.394531 223.007812 331.6875 C 214.824219 336.949219 203.71875 333.441406 195.242188 330.8125 L 123.355469 310.0625 C 119.261719 308.601562 114.585938 308.601562 110.203125 309.769531 L 84.484375 317.367188 L 84.484375 250.445312 L 96.175781 246.941406 C 123.0625 239.050781 151.699219 248.691406 179.464844 257.753906 C 188.523438 260.675781 207.226562 266.226562 207.226562 266.226562 C 213.65625 267.980469 220.082031 269.734375 227.097656 270.609375 C 230.898438 271.195312 246.675781 271.195312 244.925781 278.5 C 243.753906 282.882812 235.863281 288.730469 229.433594 289.605469 C 214.238281 291.945312 194.953125 292.234375 167.773438 279.960938 C 164.851562 278.5 161.34375 279.960938 159.882812 282.882812 C 158.421875 285.808594 159.882812 289.3125 162.804688 290.773438 C 183.261719 300.125 199.628906 302.757812 213.363281 302.757812 C 219.792969 302.757812 225.636719 302.171875 231.1875 301.296875 C 241.417969 299.835938 253.984375 291.359375 256.320312 281.421875 C 257.199219 277.625 257.488281 270.609375 249.015625 264.472656 C 243.171875 260.382812 235.863281 260.382812 228.851562 259.214844 C 222.714844 258.335938 208.980469 254.828125 208.980469 254.828125 C 200.796875 252.785156 192.320312 249.863281 183.261719 246.941406 C 155.207031 237.589844 123.355469 227.359375 92.960938 236.125 L 83.023438 239.050781 C 80.394531 233.789062 74.84375 229.988281 68.121094 229.988281 L 36.851562 229.988281 C 27.792969 229.40625 20.488281 236.125 20.488281 244.601562 L 20.488281 325.550781 C 20.488281 333.734375 27.792969 340.746094 36.851562 340.746094 L 68.414062 340.746094 C 75.425781 340.746094 81.5625 336.363281 83.902344 330.519531 L 114.003906 321.460938 C 115.753906 320.875 118.09375 320.875 120.140625 321.460938 L 192.027344 342.207031 C 203.71875 346.007812 217.453125 349.222656 228.558594 342.207031 C 228.558594 342.207031 326.457031 279.960938 327.335938 279.378906 C 332.886719 275.871094 338.148438 270.609375 338.730469 263.597656 C 339.609375 256.582031 336.101562 249.277344 329.964844 245.476562 Z M 52.632812 270.320312 C 49.417969 270.320312 46.789062 267.6875 46.789062 264.472656 C 46.789062 261.257812 49.417969 258.628906 52.632812 258.628906 C 55.847656 258.628906 58.476562 261.257812 58.476562 264.472656 C 58.476562 267.6875 55.847656 270.320312 52.632812 270.320312 Z M 52.632812 270.320312 "/></g><path style=" stroke:none;fill-rule:nonzero;fill:#ffffff;fill-opacity:1;" d="M 85.070312 105.496094 C 85.070312 105.496094 93.253906 109.296875 93.546875 116.019531 L 93.546875 156.347656 C 93.546875 159.5625 96.175781 162.191406 99.390625 162.191406 C 102.605469 162.191406 105.234375 159.5625 105.234375 156.347656 C 105.234375 156.347656 105.234375 115.726562 105.234375 115.726562 C 104.359375 102.28125 91.792969 96.144531 90.039062 94.976562 L 78.640625 89.132812 C 75.71875 92.347656 72.210938 94.976562 68.414062 97.023438 C 68.414062 97.023438 84.777344 105.496094 85.070312 105.496094 Z M 85.070312 105.496094 "/><g clip-rule="nonzero" clip-path="url(#a9d9a8321f)"><path style=" stroke:none;fill-rule:nonzero;fill:#ffffff;fill-opacity:1;" d="M 26.625 89.132812 L 15.226562 94.976562 C 13.179688 95.851562 0.613281 102.28125 0.03125 115.726562 C 0.03125 115.726562 0.03125 156.347656 0.03125 156.347656 C 0.03125 159.5625 2.660156 162.191406 5.875 162.191406 C 9.089844 162.191406 11.71875 159.5625 11.71875 156.347656 L 11.71875 116.019531 C 12.304688 109.296875 20.195312 105.496094 20.195312 105.496094 C 20.195312 105.496094 36.851562 97.023438 36.851562 97.023438 C 33.050781 94.976562 29.546875 92.347656 26.625 89.132812 Z M 26.625 89.132812 "/></g><g clip-rule="nonzero" clip-path="url(#1e6c81a595)"><path style=" stroke:none;fill-rule:nonzero;fill:#ffffff;fill-opacity:1;" d="M 52.632812 89.132812 C 65.492188 89.132812 76.011719 78.613281 76.011719 65.753906 L 76.011719 48.21875 C 76.011719 35.359375 65.492188 24.839844 52.632812 24.839844 C 39.773438 24.839844 29.253906 35.359375 29.253906 48.21875 L 29.253906 65.753906 C 29.253906 78.613281 39.773438 89.132812 52.632812 89.132812 Z M 52.632812 89.132812 "/></g><g clip-rule="nonzero" clip-path="url(#6d4e1804e9)"><path style=" stroke:none;fill-rule:nonzero;fill:#ffffff;fill-opacity:1;" d="M 192.90625 179.726562 C 190.566406 179.726562 187.9375 179.433594 185.601562 179.140625 L 178.878906 210.996094 C 178.585938 212.746094 178.878906 214.792969 180.339844 216.253906 L 188.523438 225.023438 C 190.859375 227.359375 194.660156 227.359375 196.996094 225.023438 L 205.179688 216.253906 C 206.347656 214.792969 206.933594 213.039062 206.640625 210.996094 L 199.917969 179.140625 C 197.875 179.433594 195.242188 179.726562 192.90625 179.726562 Z M 192.90625 179.726562 "/></g><path style=" stroke:none;fill-rule:nonzero;fill:#ffffff;fill-opacity:1;" d="M 52.632812 100.820312 C 50.003906 100.820312 47.371094 100.527344 45.035156 99.945312 L 38.898438 127.121094 C 38.3125 129.167969 38.898438 131.214844 40.359375 132.675781 L 48.542969 140.859375 C 50.878906 143.195312 54.386719 143.195312 56.722656 140.859375 L 64.90625 132.675781 C 66.367188 131.214844 66.953125 129.167969 66.367188 127.121094 L 59.9375 99.945312 C 57.894531 100.527344 55.261719 100.820312 52.632812 100.820312 Z M 52.632812 100.820312 "/></g></svg>