<svg xmlns="http://www.w3.org/2000/svg" xmlns:xlink="http://www.w3.org/1999/xlink" width="500" zoomAndPan="magnify" viewBox="0 0 375.12 383.03998" height="500" preserveAspectRatio="xMidYMid meet" version="1.2"><defs><clipPath id="1101ac2a77"><path d="M 0.03125 15 L 374 15 L 374 359.613281 L 0.03125 359.613281 Z M 0.03125 15 "/></clipPath><clipPath id="170a032c64"><path d="M 0.03125 15 L 190.800781 15 L 190.800781 359.613281 L 0.03125 359.613281 Z M 0.03125 15 "/></clipPath></defs><g id="0d107c42e7"><g clip-rule="nonzero" clip-path="url(#1101ac2a77)"><path style=" stroke:none;fill-rule:evenodd;fill:#ef9011;fill-opacity:1;" d="M 70.335938 218.878906 C 76.757812 218.878906 82.984375 219.742188 88.894531 221.355469 L 88.894531 82.800781 L 28.074219 82.800781 C 25.886719 82.800781 24.113281 81.027344 24.113281 78.839844 L 24.113281 47.113281 C 24.113281 38.257812 28.289062 30.234375 35.019531 24.453125 C 41.558594 18.835938 50.53125 15.339844 60.363281 15.320312 L 259.273438 15.320312 C 272 15.320312 283.597656 19.824219 292.039062 27.074219 C 300.648438 34.472656 305.988281 44.722656 305.988281 56.03125 L 305.988281 76.304688 C 308.449219 76.816406 310.746094 77.789062 312.796875 79.136719 C 315.988281 81.234375 318.539062 84.230469 320.082031 87.753906 C 320.730469 89.242188 321.367188 90.246094 322.042969 90.585938 C 322.550781 90.847656 323.429688 90.734375 324.804688 90.148438 C 328.445312 88.589844 332.464844 88.179688 336.304688 88.917969 C 340.03125 89.632812 343.601562 91.433594 346.480469 94.3125 L 346.488281 94.304688 C 349.285156 97.09375 351.0625 100.5625 351.816406 104.214844 C 352.585938 107.949219 352.269531 111.871094 350.867188 115.445312 C 350.273438 116.957031 350.015625 118.121094 350.25 118.84375 C 350.425781 119.386719 351.121094 119.925781 352.5 120.476562 L 352.710938 120.570312 C 356.296875 122.050781 359.355469 124.558594 361.5 127.722656 C 363.648438 130.886719 364.898438 134.6875 364.898438 138.75 C 364.898438 142.8125 363.648438 146.613281 361.5 149.777344 C 359.3125 153.003906 356.179688 155.550781 352.496094 157.019531 L 352.5 157.023438 C 351.121094 157.574219 350.425781 158.113281 350.25 158.65625 C 350.015625 159.378906 350.273438 160.542969 350.867188 162.054688 C 352.269531 165.632812 352.585938 169.550781 351.816406 173.285156 C 351.441406 175.085938 350.820312 176.839844 349.953125 178.488281 L 372.957031 218.335938 C 374.042969 220.222656 373.394531 222.632812 371.503906 223.71875 C 370.785156 224.128906 369.988281 224.296875 369.21875 224.226562 L 369.21875 224.242188 L 349.011719 222.539062 L 340.402344 240.855469 C 339.476562 242.832031 337.132812 243.683594 335.15625 242.757812 C 334.398438 242.40625 333.800781 241.839844 333.414062 241.164062 L 333.410156 241.171875 L 309.671875 200.046875 C 308.496094 200.546875 307.269531 200.9375 306 201.203125 L 306 250.808594 L 366.820312 250.808594 C 369.007812 250.808594 370.78125 252.582031 370.78125 254.769531 L 370.78125 284.550781 C 370.78125 293.945312 366.351562 302.453125 359.207031 308.589844 C 352.242188 314.578125 342.660156 318.296875 332.164062 318.296875 L 134.144531 318.296875 C 130.644531 325.917969 125.816406 332.808594 119.960938 338.664062 C 107.261719 351.363281 89.71875 359.222656 70.335938 359.222656 C 50.957031 359.222656 33.40625 351.363281 20.707031 338.664062 C 8.011719 325.96875 0.152344 308.417969 0.152344 289.039062 C 0.152344 269.664062 8.011719 252.117188 20.707031 239.414062 C 33.410156 226.734375 50.960938 218.878906 70.335938 218.878906 Z M 84.417969 23.234375 C 84.929688 23.628906 85.421875 24.03125 85.914062 24.453125 C 92.640625 30.238281 96.820312 38.257812 96.820312 47.113281 L 96.820312 224.046875 C 105.550781 227.605469 113.40625 232.871094 119.964844 239.433594 C 132.664062 252.132812 140.519531 269.683594 140.519531 289.058594 C 140.519531 295.964844 139.523438 302.632812 137.664062 308.9375 C 142.734375 307.425781 147.207031 304.820312 150.683594 301.457031 C 155.367188 296.917969 158.21875 290.996094 158.21875 284.5625 L 158.21875 254.777344 C 158.21875 252.59375 159.988281 250.816406 162.175781 250.816406 L 298.078125 250.816406 L 298.078125 201.210938 C 296.804688 200.949219 295.578125 200.554688 294.40625 200.058594 L 270.664062 241.179688 L 270.660156 241.175781 C 270.269531 241.851562 269.675781 242.417969 268.917969 242.769531 C 266.949219 243.691406 264.597656 242.835938 263.671875 240.867188 L 255.0625 222.550781 L 234.859375 224.25 L 234.859375 224.238281 C 234.085938 224.300781 233.289062 224.140625 232.570312 223.726562 C 230.683594 222.644531 230.03125 220.230469 231.117188 218.34375 L 254.125 178.5 C 253.253906 176.847656 252.636719 175.09375 252.265625 173.296875 C 251.492188 169.558594 251.804688 165.640625 253.210938 162.0625 C 253.800781 160.554688 254.058594 159.386719 253.824219 158.667969 C 253.648438 158.125 252.949219 157.585938 251.574219 157.03125 L 251.367188 156.941406 C 247.777344 155.464844 244.726562 152.949219 242.578125 149.785156 C 240.433594 146.621094 239.179688 142.824219 239.179688 138.761719 C 239.179688 134.695312 240.433594 130.898438 242.578125 127.734375 C 244.769531 124.507812 247.898438 121.960938 251.582031 120.492188 L 251.574219 120.488281 C 252.949219 119.933594 253.652344 119.398438 253.824219 118.855469 C 254.058594 118.128906 253.800781 116.964844 253.210938 115.457031 C 251.804688 111.875 251.492188 107.953125 252.265625 104.222656 C 253.019531 100.570312 254.796875 97.105469 257.589844 94.3125 C 260.460938 91.4375 264.035156 89.644531 267.777344 88.929688 C 271.613281 88.191406 275.632812 88.601562 279.277344 90.15625 C 280.648438 90.742188 281.53125 90.855469 282.039062 90.597656 C 282.707031 90.253906 283.347656 89.25 284 87.765625 C 285.539062 84.238281 288.085938 81.242188 291.28125 79.144531 C 293.324219 77.800781 295.628906 76.820312 298.082031 76.3125 L 298.082031 56.039062 C 298.082031 47.136719 293.804688 39.011719 286.914062 33.089844 C 279.851562 27.019531 270.074219 23.253906 259.28125 23.253906 L 84.417969 23.253906 Z M 88.894531 74.882812 L 88.894531 47.113281 C 88.894531 40.664062 85.785156 34.761719 80.773438 30.453125 C 75.589844 26 68.40625 23.234375 60.464844 23.234375 L 60.460938 23.234375 C 52.519531 23.234375 45.332031 26.003906 40.15625 30.453125 C 35.144531 34.761719 32.03125 40.65625 32.03125 47.113281 L 32.03125 74.882812 Z M 93.414062 288.488281 C 93.234375 288.511719 93.042969 288.527344 92.851562 288.527344 C 91.089844 288.527344 89.59375 287.371094 89.082031 285.777344 C 83.546875 282.796875 77.21875 281.089844 70.492188 281.066406 L 70.167969 281.066406 C 59.304688 281.109375 49.46875 285.53125 42.339844 292.660156 C 35.609375 299.390625 31.285156 308.550781 30.796875 318.707031 L 109.867188 318.707031 C 109.378906 308.546875 105.054688 299.390625 98.316406 292.660156 C 96.808594 291.136719 95.164062 289.746094 93.414062 288.488281 Z M 166.128906 258.738281 L 166.128906 284.5625 C 166.128906 293.222656 162.363281 301.128906 156.179688 307.117188 C 154.976562 308.28125 153.679688 309.375 152.304688 310.382812 L 332.160156 310.382812 C 340.71875 310.382812 348.476562 307.402344 354.0625 302.59375 C 359.488281 297.933594 362.851562 291.546875 362.851562 284.5625 L 362.851562 258.738281 Z M 144.683594 69.453125 L 250.203125 69.453125 C 252.386719 69.453125 254.164062 67.679688 254.164062 65.492188 C 254.164062 63.308594 252.386719 61.53125 250.203125 61.53125 L 144.683594 61.53125 C 142.496094 61.53125 140.722656 63.308594 140.722656 65.492188 C 140.722656 67.683594 142.496094 69.453125 144.683594 69.453125 Z M 122.28125 109.660156 L 237.425781 109.660156 C 239.609375 109.660156 241.386719 107.886719 241.386719 105.699219 C 241.386719 103.515625 239.609375 101.738281 237.425781 101.738281 L 122.28125 101.738281 C 120.097656 101.738281 118.320312 103.515625 118.320312 105.699219 C 118.320312 107.886719 120.097656 109.660156 122.28125 109.660156 Z M 122.28125 147.300781 L 224.003906 147.300781 C 226.1875 147.300781 227.964844 145.527344 227.964844 143.339844 C 227.964844 141.15625 226.1875 139.382812 224.003906 139.382812 L 122.28125 139.382812 C 120.097656 139.382812 118.320312 141.15625 118.320312 143.339844 C 118.320312 145.53125 120.097656 147.300781 122.28125 147.300781 Z M 122.28125 180.664062 L 237.421875 180.664062 C 239.605469 180.664062 241.382812 178.890625 241.382812 176.703125 C 241.382812 174.519531 239.605469 172.742188 237.421875 172.742188 L 122.28125 172.742188 C 120.097656 172.742188 118.320312 174.519531 118.320312 176.703125 C 118.320312 178.890625 120.097656 180.664062 122.28125 180.664062 Z M 122.28125 218.3125 L 218.574219 218.3125 C 220.761719 218.3125 222.535156 216.535156 222.535156 214.351562 C 222.535156 212.164062 220.761719 210.390625 218.574219 210.390625 L 122.28125 210.390625 C 120.097656 210.390625 118.320312 212.164062 118.320312 214.351562 C 118.320312 216.535156 120.097656 218.3125 122.28125 218.3125 Z M 302.03125 106.648438 C 293.167969 106.648438 285.140625 110.242188 279.328125 116.050781 C 273.519531 121.859375 269.925781 129.890625 269.925781 138.753906 C 269.925781 147.621094 273.519531 155.648438 279.328125 161.457031 C 285.140625 167.265625 293.167969 170.859375 302.03125 170.859375 C 310.898438 170.859375 318.925781 167.265625 324.734375 161.457031 C 330.542969 155.648438 334.140625 147.621094 334.140625 138.753906 C 334.140625 129.890625 330.542969 121.859375 324.734375 116.050781 C 318.925781 110.242188 310.898438 106.648438 302.03125 106.648438 Z M 319.132812 121.652344 C 314.757812 117.273438 308.707031 114.566406 302.03125 114.566406 C 295.355469 114.566406 289.304688 117.273438 284.929688 121.652344 C 280.550781 126.027344 277.84375 132.074219 277.84375 138.75 C 277.84375 145.429688 280.550781 151.476562 284.929688 155.855469 C 289.304688 160.230469 295.351562 162.941406 302.03125 162.941406 C 308.710938 162.941406 314.761719 160.230469 319.136719 155.855469 C 323.511719 151.476562 326.222656 145.429688 326.222656 138.75 C 326.21875 132.074219 323.507812 126.027344 319.132812 121.652344 Z M 344.539062 184.910156 C 342.070312 186.800781 339.234375 188.027344 336.296875 188.589844 C 332.460938 189.324219 328.4375 188.914062 324.792969 187.363281 C 323.421875 186.777344 322.539062 186.664062 322.03125 186.921875 C 321.363281 187.265625 320.722656 188.269531 320.070312 189.757812 C 319.128906 191.921875 317.800781 193.886719 316.183594 195.5625 L 336.460938 230.679688 L 342.894531 216.996094 C 343.496094 215.375 345.121094 214.285156 346.929688 214.433594 L 362.332031 215.730469 Z M 287.871094 195.5625 C 286.253906 193.886719 284.929688 191.921875 283.984375 189.757812 C 283.335938 188.273438 282.695312 187.265625 282.023438 186.921875 C 281.515625 186.664062 280.636719 186.777344 279.261719 187.363281 C 275.617188 188.914062 271.597656 189.324219 267.761719 188.589844 C 264.828125 188.035156 261.996094 186.796875 259.523438 184.898438 L 241.71875 215.734375 L 257.121094 214.4375 C 258.929688 214.292969 260.554688 215.375 261.15625 217 L 267.589844 230.6875 Z M 308.460938 85.722656 C 306.628906 84.511719 304.417969 83.8125 302.03125 83.8125 C 299.648438 83.8125 297.4375 84.519531 295.601562 85.722656 C 293.691406 86.976562 292.15625 88.78125 291.226562 90.910156 C 289.871094 94.019531 288.113281 96.332031 285.617188 97.609375 C 282.964844 98.96875 279.898438 99.011719 276.171875 97.417969 C 273.984375 96.484375 271.566406 96.238281 269.253906 96.683594 C 267.03125 97.109375 264.90625 98.183594 263.183594 99.90625 C 261.503906 101.589844 260.4375 103.648438 259.992188 105.792969 C 259.527344 108.042969 259.71875 110.410156 260.5625 112.570312 C 261.800781 115.726562 262.195312 118.605469 261.335938 121.265625 C 260.421875 124.105469 258.273438 126.304688 254.503906 127.816406 L 254.503906 127.8125 L 254.492188 127.816406 C 252.285156 128.691406 250.40625 130.222656 249.09375 132.152344 C 247.824219 134.023438 247.085938 136.296875 247.085938 138.753906 C 247.085938 141.214844 247.824219 143.488281 249.09375 145.355469 C 250.367188 147.242188 252.1875 148.738281 254.320312 149.625 L 254.503906 149.695312 C 258.273438 151.203125 260.417969 153.40625 261.335938 156.246094 C 262.195312 158.90625 261.804688 161.78125 260.5625 164.941406 C 259.710938 167.101562 259.527344 169.46875 259.992188 171.714844 C 260.4375 173.863281 261.496094 175.921875 263.183594 177.605469 L 263.175781 177.613281 C 264.890625 179.324219 267.023438 180.402344 269.253906 180.828125 C 271.566406 181.269531 273.984375 181.027344 276.171875 180.09375 C 279.898438 178.503906 282.964844 178.542969 285.617188 179.902344 C 288.117188 181.179688 289.871094 183.492188 291.226562 186.601562 C 292.0625 188.519531 293.394531 190.175781 295.050781 191.402344 C 295.167969 191.476562 295.28125 191.554688 295.382812 191.640625 L 295.601562 191.789062 C 297.4375 192.996094 299.648438 193.699219 302.03125 193.699219 C 304.417969 193.699219 306.628906 192.996094 308.460938 191.792969 L 308.664062 191.65625 C 308.777344 191.5625 308.898438 191.480469 309.023438 191.398438 C 310.679688 190.171875 312.003906 188.511719 312.839844 186.601562 C 314.195312 183.492188 315.953125 181.179688 318.449219 179.902344 C 321.101562 178.542969 324.167969 178.503906 327.894531 180.09375 C 330.082031 181.027344 332.5 181.269531 334.8125 180.828125 C 337.035156 180.402344 339.160156 179.324219 340.882812 177.605469 C 342.5625 175.921875 343.628906 173.863281 344.074219 171.714844 C 344.539062 169.46875 344.347656 167.101562 343.496094 164.941406 C 342.261719 161.785156 341.863281 158.910156 342.726562 156.246094 C 343.640625 153.40625 345.785156 151.203125 349.554688 149.695312 L 349.554688 149.699219 L 349.570312 149.695312 C 351.78125 148.816406 353.660156 147.289062 354.96875 145.351562 C 356.234375 143.484375 356.972656 141.214844 356.972656 138.75 C 356.972656 136.289062 356.234375 134.015625 354.96875 132.148438 C 353.691406 130.265625 351.875 128.765625 349.742188 127.878906 L 349.554688 127.8125 C 345.785156 126.300781 343.644531 124.101562 342.726562 121.261719 C 341.863281 118.601562 342.261719 115.726562 343.496094 112.566406 C 344.347656 110.40625 344.539062 108.039062 344.074219 105.789062 C 343.628906 103.640625 342.5625 101.582031 340.882812 99.902344 L 340.890625 99.890625 L 340.882812 99.886719 C 339.175781 98.179688 337.046875 97.109375 334.8125 96.679688 C 332.5 96.238281 330.082031 96.484375 327.894531 97.414062 C 324.167969 99.007812 321.109375 98.960938 318.449219 97.601562 C 315.953125 96.328125 314.199219 94.015625 312.839844 90.90625 C 311.910156 88.789062 310.378906 86.976562 308.460938 85.722656 Z M 70.339844 241.910156 C 66.027344 241.910156 62.121094 243.660156 59.292969 246.484375 C 56.46875 249.3125 54.722656 253.21875 54.722656 257.53125 C 54.722656 261.84375 56.472656 265.746094 59.292969 268.570312 C 62.082031 271.359375 65.917969 273.101562 70.164062 273.144531 L 70.511719 273.144531 C 74.753906 273.09375 78.59375 271.359375 81.378906 268.570312 C 84.207031 265.746094 85.953125 261.84375 85.953125 257.53125 C 85.953125 253.21875 84.203125 249.3125 81.378906 246.484375 C 78.554688 243.652344 74.652344 241.910156 70.339844 241.910156 Z M 53.695312 240.882812 C 49.4375 245.140625 46.800781 251.027344 46.800781 257.527344 C 46.800781 264.023438 49.4375 269.90625 53.695312 274.171875 C 54.1875 274.664062 54.710938 275.144531 55.25 275.589844 C 48.203125 277.949219 41.890625 281.914062 36.75 287.054688 C 28.15625 295.652344 22.839844 307.527344 22.839844 320.640625 L 22.871094 321.746094 C 22.878906 322.207031 22.894531 322.558594 22.902344 322.832031 C 22.996094 324.957031 24.746094 326.613281 26.851562 326.613281 L 26.851562 326.628906 L 113.839844 326.628906 C 116.023438 326.628906 117.796875 324.851562 117.796875 322.667969 L 117.792969 322.523438 L 117.8125 321.753906 L 117.84375 320.648438 C 117.84375 307.535156 112.523438 295.652344 103.929688 287.058594 C 101.238281 284.367188 98.21875 281.996094 94.9375 280.003906 L 94.914062 279.988281 L 94.832031 279.941406 C 91.894531 278.171875 88.742188 276.703125 85.433594 275.59375 C 85.972656 275.144531 86.488281 274.667969 86.988281 274.175781 C 91.246094 269.917969 93.882812 264.03125 93.882812 257.53125 C 93.882812 251.03125 91.246094 245.144531 86.988281 240.886719 C 82.730469 236.628906 76.84375 233.992188 70.34375 233.992188 C 63.835938 233.988281 57.953125 236.617188 53.695312 240.882812 Z M 114.359375 245.03125 C 103.09375 233.765625 87.53125 226.800781 70.339844 226.800781 C 53.148438 226.800781 37.582031 233.765625 26.316406 245.03125 C 15.050781 256.296875 8.082031 271.863281 8.082031 289.054688 C 8.082031 306.246094 15.050781 321.8125 26.316406 333.078125 C 37.582031 344.34375 53.148438 351.3125 70.339844 351.3125 C 87.53125 351.3125 103.09375 344.34375 114.359375 333.078125 C 125.628906 321.8125 132.59375 306.246094 132.59375 289.054688 C 132.59375 271.863281 125.621094 256.296875 114.359375 245.03125 Z M 114.359375 245.03125 "/></g><g clip-rule="nonzero" clip-path="url(#170a032c64)"><path style=" stroke:none;fill-rule:evenodd;fill:#ffffff;fill-opacity:1;" d="M 70.335938 218.878906 C 76.757812 218.878906 82.984375 219.742188 88.894531 221.355469 L 88.894531 82.800781 L 28.074219 82.800781 C 25.886719 82.800781 24.113281 81.027344 24.113281 78.839844 L 24.113281 47.113281 C 24.113281 38.257812 28.289062 30.234375 35.019531 24.453125 C 41.558594 18.835938 50.53125 15.339844 60.363281 15.320312 L 259.273438 15.320312 C 272 15.320312 283.597656 19.824219 292.039062 27.074219 C 300.648438 34.472656 305.988281 44.722656 305.988281 56.03125 L 305.988281 76.304688 C 308.449219 76.816406 310.746094 77.789062 312.796875 79.136719 C 315.988281 81.234375 318.539062 84.230469 320.082031 87.753906 C 320.730469 89.242188 321.367188 90.246094 322.042969 90.585938 C 322.550781 90.847656 323.429688 90.734375 324.804688 90.148438 C 328.445312 88.589844 332.464844 88.179688 336.304688 88.917969 C 340.03125 89.632812 343.601562 91.433594 346.480469 94.3125 L 346.488281 94.304688 C 349.285156 97.09375 351.0625 100.5625 351.816406 104.214844 C 352.585938 107.949219 352.269531 111.871094 350.867188 115.445312 C 350.273438 116.957031 350.015625 118.121094 350.25 118.84375 C 350.425781 119.386719 351.121094 119.925781 352.5 120.476562 L 352.710938 120.570312 C 356.296875 122.050781 359.355469 124.558594 361.5 127.722656 C 363.648438 130.886719 364.898438 134.6875 364.898438 138.75 C 364.898438 142.8125 363.648438 146.613281 361.5 149.777344 C 359.3125 153.003906 356.179688 155.550781 352.496094 157.019531 L 352.5 157.023438 C 351.121094 157.574219 350.425781 158.113281 350.25 158.65625 C 350.015625 159.378906 350.273438 160.542969 350.867188 162.054688 C 352.269531 165.632812 352.585938 169.550781 351.816406 173.285156 C 351.441406 175.085938 350.820312 176.839844 349.953125 178.488281 L 372.957031 218.335938 C 374.042969 220.222656 373.394531 222.632812 371.503906 223.71875 C 370.785156 224.128906 369.988281 224.296875 369.21875 224.226562 L 369.21875 224.242188 L 349.011719 222.539062 L 340.402344 240.855469 C 339.476562 242.832031 337.132812 243.683594 335.15625 242.757812 C 334.398438 242.40625 333.800781 241.839844 333.414062 241.164062 L 333.410156 241.171875 L 309.671875 200.046875 C 308.496094 200.546875 307.269531 200.9375 306 201.203125 L 306 250.808594 L 366.820312 250.808594 C 369.007812 250.808594 370.78125 252.582031 370.78125 254.769531 L 370.78125 284.550781 C 370.78125 293.945312 366.351562 302.453125 359.207031 308.589844 C 352.242188 314.578125 342.660156 318.296875 332.164062 318.296875 L 134.144531 318.296875 C 130.644531 325.917969 125.816406 332.808594 119.960938 338.664062 C 107.261719 351.363281 89.71875 359.222656 70.335938 359.222656 C 50.957031 359.222656 33.40625 351.363281 20.707031 338.664062 C 8.011719 325.96875 0.152344 308.417969 0.152344 289.039062 C 0.152344 269.664062 8.011719 252.117188 20.707031 239.414062 C 33.410156 226.734375 50.960938 218.878906 70.335938 218.878906 Z M 84.417969 23.234375 C 84.929688 23.628906 85.421875 24.03125 85.914062 24.453125 C 92.640625 30.238281 96.820312 38.257812 96.820312 47.113281 L 96.820312 224.046875 C 105.550781 227.605469 113.40625 232.871094 119.964844 239.433594 C 132.664062 252.132812 140.519531 269.683594 140.519531 289.058594 C 140.519531 295.964844 139.523438 302.632812 137.664062 308.9375 C 142.734375 307.425781 147.207031 304.820312 150.683594 301.457031 C 155.367188 296.917969 158.21875 290.996094 158.21875 284.5625 L 158.21875 254.777344 C 158.21875 252.59375 159.988281 250.816406 162.175781 250.816406 L 298.078125 250.816406 L 298.078125 201.210938 C 296.804688 200.949219 295.578125 200.554688 294.40625 200.058594 L 270.664062 241.179688 L 270.660156 241.175781 C 270.269531 241.851562 269.675781 242.417969 268.917969 242.769531 C 266.949219 243.691406 264.597656 242.835938 263.671875 240.867188 L 255.0625 222.550781 L 234.859375 224.25 L 234.859375 224.238281 C 234.085938 224.300781 233.289062 224.140625 232.570312 223.726562 C 230.683594 222.644531 230.03125 220.230469 231.117188 218.34375 L 254.125 178.5 C 253.253906 176.847656 252.636719 175.09375 252.265625 173.296875 C 251.492188 169.558594 251.804688 165.640625 253.210938 162.0625 C 253.800781 160.554688 254.058594 159.386719 253.824219 158.667969 C 253.648438 158.125 252.949219 157.585938 251.574219 157.03125 L 251.367188 156.941406 C 247.777344 155.464844 244.726562 152.949219 242.578125 149.785156 C 240.433594 146.621094 239.179688 142.824219 239.179688 138.761719 C 239.179688 134.695312 240.433594 130.898438 242.578125 127.734375 C 244.769531 124.507812 247.898438 121.960938 251.582031 120.492188 L 251.574219 120.488281 C 252.949219 119.933594 253.652344 119.398438 253.824219 118.855469 C 254.058594 118.128906 253.800781 116.964844 253.210938 115.457031 C 251.804688 111.875 251.492188 107.953125 252.265625 104.222656 C 253.019531 100.570312 254.796875 97.105469 257.589844 94.3125 C 260.460938 91.4375 264.035156 89.644531 267.777344 88.929688 C 271.613281 88.191406 275.632812 88.601562 279.277344 90.15625 C 280.648438 90.742188 281.53125 90.855469 282.039062 90.597656 C 282.707031 90.253906 283.347656 89.25 284 87.765625 C 285.539062 84.238281 288.085938 81.242188 291.28125 79.144531 C 293.324219 77.800781 295.628906 76.820312 298.082031 76.3125 L 298.082031 56.039062 C 298.082031 47.136719 293.804688 39.011719 286.914062 33.089844 C 279.851562 27.019531 270.074219 23.253906 259.28125 23.253906 L 84.417969 23.253906 Z M 88.894531 74.882812 L 88.894531 47.113281 C 88.894531 40.664062 85.785156 34.761719 80.773438 30.453125 C 75.589844 26 68.40625 23.234375 60.464844 23.234375 L 60.460938 23.234375 C 52.519531 23.234375 45.332031 26.003906 40.15625 30.453125 C 35.144531 34.761719 32.03125 40.65625 32.03125 47.113281 L 32.03125 74.882812 Z M 93.414062 288.488281 C 93.234375 288.511719 93.042969 288.527344 92.851562 288.527344 C 91.089844 288.527344 89.59375 287.371094 89.082031 285.777344 C 83.546875 282.796875 77.21875 281.089844 70.492188 281.066406 L 70.167969 281.066406 C 59.304688 281.109375 49.46875 285.53125 42.339844 292.660156 C 35.609375 299.390625 31.285156 308.550781 30.796875 318.707031 L 109.867188 318.707031 C 109.378906 308.546875 105.054688 299.390625 98.316406 292.660156 C 96.808594 291.136719 95.164062 289.746094 93.414062 288.488281 Z M 166.128906 258.738281 L 166.128906 284.5625 C 166.128906 293.222656 162.363281 301.128906 156.179688 307.117188 C 154.976562 308.28125 153.679688 309.375 152.304688 310.382812 L 332.160156 310.382812 C 340.71875 310.382812 348.476562 307.402344 354.0625 302.59375 C 359.488281 297.933594 362.851562 291.546875 362.851562 284.5625 L 362.851562 258.738281 Z M 144.683594 69.453125 L 250.203125 69.453125 C 252.386719 69.453125 254.164062 67.679688 254.164062 65.492188 C 254.164062 63.308594 252.386719 61.53125 250.203125 61.53125 L 144.683594 61.53125 C 142.496094 61.53125 140.722656 63.308594 140.722656 65.492188 C 140.722656 67.683594 142.496094 69.453125 144.683594 69.453125 Z M 122.28125 109.660156 L 237.425781 109.660156 C 239.609375 109.660156 241.386719 107.886719 241.386719 105.699219 C 241.386719 103.515625 239.609375 101.738281 237.425781 101.738281 L 122.28125 101.738281 C 120.097656 101.738281 118.320312 103.515625 118.320312 105.699219 C 118.320312 107.886719 120.097656 109.660156 122.28125 109.660156 Z M 122.28125 147.300781 L 224.003906 147.300781 C 226.1875 147.300781 227.964844 145.527344 227.964844 143.339844 C 227.964844 141.15625 226.1875 139.382812 224.003906 139.382812 L 122.28125 139.382812 C 120.097656 139.382812 118.320312 141.15625 118.320312 143.339844 C 118.320312 145.53125 120.097656 147.300781 122.28125 147.300781 Z M 122.28125 180.664062 L 237.421875 180.664062 C 239.605469 180.664062 241.382812 178.890625 241.382812 176.703125 C 241.382812 174.519531 239.605469 172.742188 237.421875 172.742188 L 122.28125 172.742188 C 120.097656 172.742188 118.320312 174.519531 118.320312 176.703125 C 118.320312 178.890625 120.097656 180.664062 122.28125 180.664062 Z M 122.28125 218.3125 L 218.574219 218.3125 C 220.761719 218.3125 222.535156 216.535156 222.535156 214.351562 C 222.535156 212.164062 220.761719 210.390625 218.574219 210.390625 L 122.28125 210.390625 C 120.097656 210.390625 118.320312 212.164062 118.320312 214.351562 C 118.320312 216.535156 120.097656 218.3125 122.28125 218.3125 Z M 302.03125 106.648438 C 293.167969 106.648438 285.140625 110.242188 279.328125 116.050781 C 273.519531 121.859375 269.925781 129.890625 269.925781 138.753906 C 269.925781 147.621094 273.519531 155.648438 279.328125 161.457031 C 285.140625 167.265625 293.167969 170.859375 302.03125 170.859375 C 310.898438 170.859375 318.925781 167.265625 324.734375 161.457031 C 330.542969 155.648438 334.140625 147.621094 334.140625 138.753906 C 334.140625 129.890625 330.542969 121.859375 324.734375 116.050781 C 318.925781 110.242188 310.898438 106.648438 302.03125 106.648438 Z M 319.132812 121.652344 C 314.757812 117.273438 308.707031 114.566406 302.03125 114.566406 C 295.355469 114.566406 289.304688 117.273438 284.929688 121.652344 C 280.550781 126.027344 277.84375 132.074219 277.84375 138.75 C 277.84375 145.429688 280.550781 151.476562 284.929688 155.855469 C 289.304688 160.230469 295.351562 162.941406 302.03125 162.941406 C 308.710938 162.941406 314.761719 160.230469 319.136719 155.855469 C 323.511719 151.476562 326.222656 145.429688 326.222656 138.75 C 326.21875 132.074219 323.507812 126.027344 319.132812 121.652344 Z M 344.539062 184.910156 C 342.070312 186.800781 339.234375 188.027344 336.296875 188.589844 C 332.460938 189.324219 328.4375 188.914062 324.792969 187.363281 C 323.421875 186.777344 322.539062 186.664062 322.03125 186.921875 C 321.363281 187.265625 320.722656 188.269531 320.070312 189.757812 C 319.128906 191.921875 317.800781 193.886719 316.183594 195.5625 L 336.460938 230.679688 L 342.894531 216.996094 C 343.496094 215.375 345.121094 214.285156 346.929688 214.433594 L 362.332031 215.730469 Z M 287.871094 195.5625 C 286.253906 193.886719 284.929688 191.921875 283.984375 189.757812 C 283.335938 188.273438 282.695312 187.265625 282.023438 186.921875 C 281.515625 186.664062 280.636719 186.777344 279.261719 187.363281 C 275.617188 188.914062 271.597656 189.324219 267.761719 188.589844 C 264.828125 188.035156 261.996094 186.796875 259.523438 184.898438 L 241.71875 215.734375 L 257.121094 214.4375 C 258.929688 214.292969 260.554688 215.375 261.15625 217 L 267.589844 230.6875 Z M 308.460938 85.722656 C 306.628906 84.511719 304.417969 83.8125 302.03125 83.8125 C 299.648438 83.8125 297.4375 84.519531 295.601562 85.722656 C 293.691406 86.976562 292.15625 88.78125 291.226562 90.910156 C 289.871094 94.019531 288.113281 96.332031 285.617188 97.609375 C 282.964844 98.96875 279.898438 99.011719 276.171875 97.417969 C 273.984375 96.484375 271.566406 96.238281 269.253906 96.683594 C 267.03125 97.109375 264.90625 98.183594 263.183594 99.90625 C 261.503906 101.589844 260.4375 103.648438 259.992188 105.792969 C 259.527344 108.042969 259.71875 110.410156 260.5625 112.570312 C 261.800781 115.726562 262.195312 118.605469 261.335938 121.265625 C 260.421875 124.105469 258.273438 126.304688 254.503906 127.816406 L 254.503906 127.8125 L 254.492188 127.816406 C 252.285156 128.691406 250.40625 130.222656 249.09375 132.152344 C 247.824219 134.023438 247.085938 136.296875 247.085938 138.753906 C 247.085938 141.214844 247.824219 143.488281 249.09375 145.355469 C 250.367188 147.242188 252.1875 148.738281 254.320312 149.625 L 254.503906 149.695312 C 258.273438 151.203125 260.417969 153.40625 261.335938 156.246094 C 262.195312 158.90625 261.804688 161.78125 260.5625 164.941406 C 259.710938 167.101562 259.527344 169.46875 259.992188 171.714844 C 260.4375 173.863281 261.496094 175.921875 263.183594 177.605469 L 263.175781 177.613281 C 264.890625 179.324219 267.023438 180.402344 269.253906 180.828125 C 271.566406 181.269531 273.984375 181.027344 276.171875 180.09375 C 279.898438 178.503906 282.964844 178.542969 285.617188 179.902344 C 288.117188 181.179688 289.871094 183.492188 291.226562 186.601562 C 292.0625 188.519531 293.394531 190.175781 295.050781 191.402344 C 295.167969 191.476562 295.28125 191.554688 295.382812 191.640625 L 295.601562 191.789062 C 297.4375 192.996094 299.648438 193.699219 302.03125 193.699219 C 304.417969 193.699219 306.628906 192.996094 308.460938 191.792969 L 308.664062 191.65625 C 308.777344 191.5625 308.898438 191.480469 309.023438 191.398438 C 310.679688 190.171875 312.003906 188.511719 312.839844 186.601562 C 314.195312 183.492188 315.953125 181.179688 318.449219 179.902344 C 321.101562 178.542969 324.167969 178.503906 327.894531 180.09375 C 330.082031 181.027344 332.5 181.269531 334.8125 180.828125 C 337.035156 180.402344 339.160156 179.324219 340.882812 177.605469 C 342.5625 175.921875 343.628906 173.863281 344.074219 171.714844 C 344.539062 169.46875 344.347656 167.101562 343.496094 164.941406 C 342.261719 161.785156 341.863281 158.910156 342.726562 156.246094 C 343.640625 153.40625 345.785156 151.203125 349.554688 149.695312 L 349.554688 149.699219 L 349.570312 149.695312 C 351.78125 148.816406 353.660156 147.289062 354.96875 145.351562 C 356.234375 143.484375 356.972656 141.214844 356.972656 138.75 C 356.972656 136.289062 356.234375 134.015625 354.96875 132.148438 C 353.691406 130.265625 351.875 128.765625 349.742188 127.878906 L 349.554688 127.8125 C 345.785156 126.300781 343.644531 124.101562 342.726562 121.261719 C 341.863281 118.601562 342.261719 115.726562 343.496094 112.566406 C 344.347656 110.40625 344.539062 108.039062 344.074219 105.789062 C 343.628906 103.640625 342.5625 101.582031 340.882812 99.902344 L 340.890625 99.890625 L 340.882812 99.886719 C 339.175781 98.179688 337.046875 97.109375 334.8125 96.679688 C 332.5 96.238281 330.082031 96.484375 327.894531 97.414062 C 324.167969 99.007812 321.109375 98.960938 318.449219 97.601562 C 315.953125 96.328125 314.199219 94.015625 312.839844 90.90625 C 311.910156 88.789062 310.378906 86.976562 308.460938 85.722656 Z M 70.339844 241.910156 C 66.027344 241.910156 62.121094 243.660156 59.292969 246.484375 C 56.46875 249.3125 54.722656 253.21875 54.722656 257.53125 C 54.722656 261.84375 56.472656 265.746094 59.292969 268.570312 C 62.082031 271.359375 65.917969 273.101562 70.164062 273.144531 L 70.511719 273.144531 C 74.753906 273.09375 78.59375 271.359375 81.378906 268.570312 C 84.207031 265.746094 85.953125 261.84375 85.953125 257.53125 C 85.953125 253.21875 84.203125 249.3125 81.378906 246.484375 C 78.554688 243.652344 74.652344 241.910156 70.339844 241.910156 Z M 53.695312 240.882812 C 49.4375 245.140625 46.800781 251.027344 46.800781 257.527344 C 46.800781 264.023438 49.4375 269.90625 53.695312 274.171875 C 54.1875 274.664062 54.710938 275.144531 55.25 275.589844 C 48.203125 277.949219 41.890625 281.914062 36.75 287.054688 C 28.15625 295.652344 22.839844 307.527344 22.839844 320.640625 L 22.871094 321.746094 C 22.878906 322.207031 22.894531 322.558594 22.902344 322.832031 C 22.996094 324.957031 24.746094 326.613281 26.851562 326.613281 L 26.851562 326.628906 L 113.839844 326.628906 C 116.023438 326.628906 117.796875 324.851562 117.796875 322.667969 L 117.792969 322.523438 L 117.8125 321.753906 L 117.84375 320.648438 C 117.84375 307.535156 112.523438 295.652344 103.929688 287.058594 C 101.238281 284.367188 98.21875 281.996094 94.9375 280.003906 L 94.914062 279.988281 L 94.832031 279.941406 C 91.894531 278.171875 88.742188 276.703125 85.433594 275.59375 C 85.972656 275.144531 86.488281 274.667969 86.988281 274.175781 C 91.246094 269.917969 93.882812 264.03125 93.882812 257.53125 C 93.882812 251.03125 91.246094 245.144531 86.988281 240.886719 C 82.730469 236.628906 76.84375 233.992188 70.34375 233.992188 C 63.835938 233.988281 57.953125 236.617188 53.695312 240.882812 Z M 114.359375 245.03125 C 103.09375 233.765625 87.53125 226.800781 70.339844 226.800781 C 53.148438 226.800781 37.582031 233.765625 26.316406 245.03125 C 15.050781 256.296875 8.082031 271.863281 8.082031 289.054688 C 8.082031 306.246094 15.050781 321.8125 26.316406 333.078125 C 37.582031 344.34375 53.148438 351.3125 70.339844 351.3125 C 87.53125 351.3125 103.09375 344.34375 114.359375 333.078125 C 125.628906 321.8125 132.59375 306.246094 132.59375 289.054688 C 132.59375 271.863281 125.621094 256.296875 114.359375 245.03125 Z M 114.359375 245.03125 "/></g></g></svg>