<svg xmlns="http://www.w3.org/2000/svg" xmlns:xlink="http://www.w3.org/1999/xlink" width="500" zoomAndPan="magnify" viewBox="0 0 375.12 383.03998" height="500" preserveAspectRatio="xMidYMid meet" version="1.2"><defs><clipPath id="5edda916b9"><path d="M 326.367188 145.566406 L 371.429688 145.566406 L 371.429688 236 L 326.367188 236 Z M 326.367188 145.566406 "/></clipPath><clipPath id="98809c727b"><path d="M 1.109375 145 L 47 145 L 47 236 L 1.109375 236 Z M 1.109375 145 "/></clipPath><clipPath id="b68c30d00a"><path d="M 149.609375 330 L 221.621094 330 L 221.621094 354.960938 L 149.609375 354.960938 Z M 149.609375 330 "/></clipPath><clipPath id="7db89046ac"><path d="M 58 57 L 191.882812 57 L 191.882812 312 L 58 312 Z M 58 57 "/></clipPath><clipPath id="fbcb03c2e7"><path d="M 23 25 L 191.882812 25 L 191.882812 350 L 23 350 Z M 23 25 "/></clipPath><clipPath id="7169e8de5c"><path d="M 1.109375 145 L 47 145 L 47 236 L 1.109375 236 Z M 1.109375 145 "/></clipPath><clipPath id="d0b69ab4b6"><path d="M 81 19 L 191.882812 19 L 191.882812 72 L 81 72 Z M 81 19 "/></clipPath><clipPath id="dfc183f8b8"><path d="M 149.609375 330 L 191.882812 330 L 191.882812 354.960938 L 149.609375 354.960938 Z M 149.609375 330 "/></clipPath></defs><g id="346099c3d1"><path style=" stroke:none;fill-rule:nonzero;fill:#ef9011;fill-opacity:1;" d="M 126.441406 283.371094 L 130.023438 285.351562 C 146.972656 294.691406 166.21875 299.628906 185.6875 299.628906 C 216.539062 299.628906 245.539062 287.617188 267.351562 265.804688 C 289.164062 243.996094 301.175781 214.992188 301.175781 184.140625 C 301.175781 153.296875 289.164062 124.292969 267.351562 102.484375 C 245.539062 80.671875 216.539062 68.65625 185.6875 68.65625 C 154.84375 68.65625 125.839844 80.671875 104.027344 102.484375 C 82.210938 124.292969 70.203125 153.296875 70.203125 184.140625 C 70.203125 203.464844 75.066406 222.582031 84.269531 239.429688 L 86.222656 243.003906 L 71.457031 298.105469 Z M 185.6875 311.167969 C 164.460938 311.167969 143.472656 305.824219 124.941406 295.714844 L 72.6875 309.71875 C 71.777344 309.964844 70.847656 310.089844 69.929688 310.089844 C 66.722656 310.089844 63.621094 308.539062 61.640625 305.957031 C 59.648438 303.363281 58.992188 300.050781 59.84375 296.875 L 73.882812 244.476562 C 63.925781 226.054688 58.667969 205.210938 58.667969 184.140625 C 58.667969 150.214844 71.878906 118.316406 95.867188 94.324219 C 119.859375 70.335938 151.761719 57.121094 185.6875 57.121094 C 219.621094 57.121094 251.515625 70.335938 275.507812 94.324219 C 299.5 118.316406 312.710938 150.214844 312.710938 184.140625 C 312.710938 218.074219 299.5 249.96875 275.507812 273.960938 C 251.515625 297.953125 219.621094 311.167969 185.6875 311.167969 "/><path style=" stroke:none;fill-rule:nonzero;fill:#ef9011;fill-opacity:1;" d="M 300.230469 72.488281 C 269.636719 41.894531 228.957031 25.042969 185.6875 25.042969 C 142.417969 25.042969 101.746094 41.894531 71.152344 72.488281 C 40.554688 103.085938 23.707031 143.761719 23.707031 187.027344 C 23.707031 202.035156 25.734375 216.730469 29.660156 230.800781 L 39.765625 227.964844 C 36.105469 214.9375 34.144531 201.207031 34.144531 187.027344 C 34.144531 103.464844 102.125 35.484375 185.6875 35.484375 C 269.25 35.484375 337.234375 103.464844 337.234375 187.027344 C 337.234375 270.589844 269.25 338.570312 185.6875 338.570312 L 185.6875 349.011719 C 228.957031 349.011719 269.636719 332.160156 300.230469 301.566406 C 330.824219 270.96875 347.671875 230.292969 347.671875 187.027344 C 347.671875 143.761719 330.824219 103.085938 300.230469 72.488281 "/><g clip-rule="nonzero" clip-path="url(#5edda916b9)"><path style=" stroke:none;fill-rule:nonzero;fill:#ef9011;fill-opacity:1;" d="M 368.464844 173.089844 L 368.480469 172.003906 C 368.601562 161.667969 361.191406 153.015625 351.234375 151.375 L 341.496094 150.105469 C 341.335938 149.648438 341.125 149.210938 340.847656 148.8125 C 340.351562 148.109375 339.726562 147.492188 338.984375 146.992188 C 337.5625 146.03125 335.816406 145.671875 334.113281 145.863281 L 334.0625 145.867188 C 330.28125 146.359375 327.582031 149.707031 327.925781 153.5 C 330.132812 178.03125 329.664062 202.847656 326.53125 227.269531 C 326.042969 231.0625 328.734375 234.601562 332.535156 235.15625 L 332.613281 235.167969 C 333.253906 235.257812 333.898438 235.265625 334.539062 235.183594 C 337.289062 234.832031 339.53125 232.910156 340.359375 230.332031 C 341.242188 230.363281 342.226562 230.351562 342.226562 230.351562 C 344.417969 230.480469 348.65625 230.386719 349.824219 230.199219 C 349.890625 230.191406 349.957031 230.195312 350.023438 230.171875 C 360.164062 228.867188 367.898438 220.164062 368.023438 209.933594 L 368.035156 208.929688 C 369.953125 206.617188 371.027344 203.734375 371.085938 200.703125 L 371.445312 181.734375 C 371.503906 178.558594 370.453125 175.527344 368.464844 173.089844 "/></g><g clip-rule="nonzero" clip-path="url(#98809c727b)"><path style=" stroke:none;fill-rule:nonzero;fill:#ef9011;fill-opacity:1;" d="M 4.203125 173.089844 L 4.1875 172.003906 C 4.0625 161.667969 11.472656 153.015625 21.429688 151.375 L 31.171875 150.105469 C 31.332031 149.648438 31.539062 149.210938 31.820312 148.8125 C 32.3125 148.109375 32.941406 147.492188 33.683594 146.992188 C 35.101562 146.03125 36.851562 145.671875 38.554688 145.863281 L 38.605469 145.867188 C 42.386719 146.359375 45.082031 149.707031 44.738281 153.5 C 42.53125 178.03125 43 202.847656 46.136719 227.269531 C 46.625 231.0625 43.933594 234.601562 40.132812 235.15625 L 40.050781 235.167969 C 39.410156 235.257812 38.765625 235.265625 38.128906 235.183594 C 35.378906 234.832031 33.132812 232.910156 32.308594 230.332031 C 31.421875 230.363281 30.441406 230.351562 30.441406 230.351562 C 28.246094 230.480469 24.011719 230.386719 22.84375 230.199219 C 22.777344 230.191406 22.710938 230.195312 22.644531 230.171875 C 12.503906 228.867188 4.765625 220.164062 4.640625 209.933594 L 4.632812 208.929688 C 2.714844 206.617188 1.636719 203.734375 1.582031 200.703125 L 1.222656 181.734375 C 1.164062 178.558594 2.210938 175.527344 4.203125 173.089844 "/></g><path style=" stroke:none;fill-rule:nonzero;fill:#ef9011;fill-opacity:1;" d="M 289.429688 59.035156 C 289.046875 55.964844 287.46875 53.269531 284.984375 51.445312 C 256.132812 30.21875 221.796875 19 185.6875 19 C 149.578125 19 115.242188 30.21875 86.394531 51.445312 C 83.910156 53.269531 82.332031 55.964844 81.949219 59.035156 C 81.574219 62.085938 82.476562 65.203125 84.429688 67.574219 L 84.542969 67.714844 C 86.683594 70.308594 89.835938 71.796875 93.203125 71.796875 C 95.597656 71.796875 97.882812 71.046875 99.820312 69.632812 C 124.890625 51.246094 154.582031 41.523438 185.6875 41.523438 C 216.792969 41.523438 246.488281 51.246094 271.558594 69.632812 C 273.488281 71.046875 275.777344 71.796875 278.171875 71.796875 C 281.535156 71.796875 284.695312 70.308594 286.832031 67.714844 L 286.949219 67.574219 C 288.898438 65.203125 289.808594 62.085938 289.429688 59.035156 "/><g clip-rule="nonzero" clip-path="url(#b68c30d00a)"><path style=" stroke:none;fill-rule:nonzero;fill:#ef9011;fill-opacity:1;" d="M 209.640625 354.960938 L 161.789062 354.960938 C 155.183594 354.960938 149.828125 349.601562 149.828125 342.996094 L 149.828125 342.753906 C 149.828125 336.148438 155.183594 330.789062 161.789062 330.789062 L 209.640625 330.789062 C 216.246094 330.789062 221.605469 336.148438 221.605469 342.753906 L 221.605469 342.996094 C 221.605469 349.601562 216.246094 354.960938 209.640625 354.960938 "/></g><path style=" stroke:none;fill-rule:nonzero;fill:#ef9011;fill-opacity:1;" d="M 137.671875 201.632812 L 119.101562 201.632812 L 134.574219 184.066406 C 136.449219 181.941406 138.042969 179.675781 139.304688 177.328125 C 140.597656 174.910156 141.253906 172.539062 141.253906 170.277344 C 141.253906 166.667969 140.550781 163.46875 139.164062 160.769531 C 137.761719 158.039062 135.746094 155.90625 133.164062 154.425781 C 130.601562 152.953125 127.582031 152.207031 124.203125 152.207031 C 120.824219 152.207031 117.734375 153.003906 115.023438 154.570312 C 112.3125 156.144531 110.140625 158.324219 108.574219 161.058594 C 107 163.792969 106.203125 166.898438 106.203125 170.277344 C 106.203125 171.464844 106.65625 172.519531 107.539062 173.40625 C 108.421875 174.289062 109.5 174.734375 110.738281 174.734375 C 112.03125 174.734375 113.121094 174.285156 113.980469 173.394531 C 114.839844 172.511719 115.269531 171.460938 115.269531 170.277344 C 115.269531 168.578125 115.664062 166.964844 116.445312 165.492188 C 117.226562 164.027344 118.316406 162.84375 119.6875 161.980469 C 121.054688 161.121094 122.574219 160.6875 124.203125 160.6875 C 126.792969 160.6875 128.765625 161.523438 130.242188 163.242188 C 131.730469 164.972656 132.484375 167.335938 132.484375 170.277344 C 132.484375 172.632812 131.007812 175.511719 128.09375 178.84375 L 107.441406 202.988281 C 106.621094 203.820312 106.203125 204.890625 106.203125 206.164062 C 106.203125 207.398438 106.636719 208.46875 107.492188 209.351562 C 108.351562 210.242188 109.441406 210.695312 110.738281 210.695312 L 137.671875 210.695312 C 138.957031 210.695312 140.058594 210.246094 140.945312 209.367188 C 141.828125 208.480469 142.273438 207.40625 142.273438 206.164062 C 142.273438 204.925781 141.828125 203.847656 140.945312 202.964844 C 140.058594 202.082031 138.957031 201.632812 137.671875 201.632812 "/><path style=" stroke:none;fill-rule:nonzero;fill:#ef9011;fill-opacity:1;" d="M 173.6875 168.628906 L 173.6875 189.472656 L 157.8125 189.472656 Z M 189.203125 190.449219 C 188.378906 189.804688 187.304688 189.472656 186.007812 189.472656 L 182.457031 189.472656 L 182.457031 156.808594 C 182.457031 155.546875 182.074219 154.460938 181.3125 153.578125 C 180.519531 152.664062 179.476562 152.207031 178.214844 152.207031 C 176.742188 152.207031 175.496094 152.855469 174.507812 154.128906 L 146.628906 190.671875 C 146.035156 191.441406 145.730469 192.347656 145.730469 193.351562 C 145.730469 194.53125 146.148438 195.582031 146.972656 196.460938 C 147.8125 197.355469 148.914062 197.8125 150.265625 197.8125 L 173.6875 197.8125 L 173.6875 206.164062 C 173.6875 207.390625 174.105469 208.460938 174.925781 209.34375 C 175.761719 210.238281 176.796875 210.695312 178 210.695312 C 179.242188 210.695312 180.308594 210.242188 181.171875 209.351562 C 182.027344 208.46875 182.457031 207.394531 182.457031 206.164062 L 182.457031 197.8125 L 186.007812 197.8125 C 187.230469 197.8125 188.296875 197.410156 189.175781 196.617188 C 190.078125 195.804688 190.539062 194.804688 190.539062 193.640625 C 190.539062 192.222656 190.089844 191.148438 189.203125 190.449219 "/><path style=" stroke:none;fill-rule:nonzero;fill:#ef9011;fill-opacity:1;" d="M 221.019531 152.207031 C 220.144531 152.207031 219.3125 152.445312 218.554688 152.910156 C 217.777344 153.386719 217.203125 154.050781 216.835938 154.902344 L 194.933594 209.707031 C 194.648438 210.382812 194.507812 211.027344 194.507812 211.625 C 194.507812 212.867188 194.953125 213.933594 195.847656 214.796875 C 196.730469 215.652344 197.804688 216.082031 199.039062 216.082031 C 199.90625 216.082031 200.730469 215.859375 201.484375 215.425781 C 202.277344 214.96875 202.859375 214.285156 203.21875 213.382812 L 225.128906 158.570312 L 225.136719 158.542969 C 225.363281 157.921875 225.480469 157.289062 225.480469 156.664062 C 225.480469 155.421875 225.042969 154.363281 224.183594 153.5 C 223.324219 152.640625 222.257812 152.207031 221.019531 152.207031 "/><path style=" stroke:none;fill-rule:nonzero;fill:#ef9011;fill-opacity:1;" d="M 263.890625 153.535156 C 263.007812 152.652344 261.929688 152.207031 260.695312 152.207031 L 232.960938 152.207031 C 231.671875 152.207031 230.582031 152.640625 229.71875 153.5 C 228.863281 154.363281 228.425781 155.449219 228.425781 156.738281 C 228.425781 158.027344 228.863281 159.113281 229.71875 159.972656 C 230.582031 160.832031 231.667969 161.265625 232.960938 161.265625 L 253.785156 161.265625 L 233.460938 203.464844 C 232.972656 204.449219 232.722656 205.359375 232.722656 206.164062 C 232.722656 207.40625 233.167969 208.480469 234.054688 209.367188 C 234.9375 210.246094 235.988281 210.695312 237.179688 210.695312 C 238 210.695312 238.796875 210.472656 239.554688 210.039062 C 240.316406 209.601562 240.914062 208.988281 241.320312 208.226562 L 241.332031 208.207031 L 264.636719 159.054688 L 264.644531 159.03125 C 265.03125 158.136719 265.222656 157.386719 265.222656 156.738281 C 265.222656 155.496094 264.777344 154.421875 263.890625 153.535156 "/><g clip-rule="nonzero" clip-path="url(#7db89046ac)"><path style=" stroke:none;fill-rule:nonzero;fill:#ffffff;fill-opacity:1;" d="M 126.441406 283.371094 L 130.023438 285.351562 C 146.972656 294.691406 166.21875 299.628906 185.6875 299.628906 C 216.539062 299.628906 245.539062 287.617188 267.351562 265.804688 C 289.164062 243.996094 301.175781 214.992188 301.175781 184.140625 C 301.175781 153.296875 289.164062 124.292969 267.351562 102.484375 C 245.539062 80.671875 216.539062 68.65625 185.6875 68.65625 C 154.84375 68.65625 125.839844 80.671875 104.027344 102.484375 C 82.210938 124.292969 70.203125 153.296875 70.203125 184.140625 C 70.203125 203.464844 75.066406 222.582031 84.269531 239.429688 L 86.222656 243.003906 L 71.457031 298.105469 Z M 185.6875 311.167969 C 164.460938 311.167969 143.472656 305.824219 124.941406 295.714844 L 72.6875 309.71875 C 71.777344 309.964844 70.847656 310.089844 69.929688 310.089844 C 66.722656 310.089844 63.621094 308.539062 61.640625 305.957031 C 59.648438 303.363281 58.992188 300.050781 59.84375 296.875 L 73.882812 244.476562 C 63.925781 226.054688 58.667969 205.210938 58.667969 184.140625 C 58.667969 150.214844 71.878906 118.316406 95.867188 94.324219 C 119.859375 70.335938 151.761719 57.121094 185.6875 57.121094 C 219.621094 57.121094 251.515625 70.335938 275.507812 94.324219 C 299.5 118.316406 312.710938 150.214844 312.710938 184.140625 C 312.710938 218.074219 299.5 249.96875 275.507812 273.960938 C 251.515625 297.953125 219.621094 311.167969 185.6875 311.167969 "/></g><g clip-rule="nonzero" clip-path="url(#fbcb03c2e7)"><path style=" stroke:none;fill-rule:nonzero;fill:#ffffff;fill-opacity:1;" d="M 300.230469 72.488281 C 269.636719 41.894531 228.957031 25.042969 185.6875 25.042969 C 142.417969 25.042969 101.746094 41.894531 71.152344 72.488281 C 40.554688 103.085938 23.707031 143.761719 23.707031 187.027344 C 23.707031 202.035156 25.734375 216.730469 29.660156 230.800781 L 39.765625 227.964844 C 36.105469 214.9375 34.144531 201.207031 34.144531 187.027344 C 34.144531 103.464844 102.125 35.484375 185.6875 35.484375 C 269.25 35.484375 337.234375 103.464844 337.234375 187.027344 C 337.234375 270.589844 269.25 338.570312 185.6875 338.570312 L 185.6875 349.011719 C 228.957031 349.011719 269.636719 332.160156 300.230469 301.566406 C 330.824219 270.96875 347.671875 230.292969 347.671875 187.027344 C 347.671875 143.761719 330.824219 103.085938 300.230469 72.488281 "/></g><g clip-rule="nonzero" clip-path="url(#7169e8de5c)"><path style=" stroke:none;fill-rule:nonzero;fill:#ffffff;fill-opacity:1;" d="M 4.203125 173.089844 L 4.1875 172.003906 C 4.0625 161.667969 11.472656 153.015625 21.429688 151.375 L 31.171875 150.105469 C 31.332031 149.648438 31.539062 149.210938 31.820312 148.8125 C 32.3125 148.109375 32.941406 147.492188 33.683594 146.992188 C 35.101562 146.03125 36.851562 145.671875 38.554688 145.863281 L 38.605469 145.867188 C 42.386719 146.359375 45.082031 149.707031 44.738281 153.5 C 42.53125 178.03125 43 202.847656 46.136719 227.269531 C 46.625 231.0625 43.933594 234.601562 40.132812 235.15625 L 40.050781 235.167969 C 39.410156 235.257812 38.765625 235.265625 38.128906 235.183594 C 35.378906 234.832031 33.132812 232.910156 32.308594 230.332031 C 31.421875 230.363281 30.441406 230.351562 30.441406 230.351562 C 28.246094 230.480469 24.011719 230.386719 22.84375 230.199219 C 22.777344 230.191406 22.710938 230.195312 22.644531 230.171875 C 12.503906 228.867188 4.765625 220.164062 4.640625 209.933594 L 4.632812 208.929688 C 2.714844 206.617188 1.636719 203.734375 1.582031 200.703125 L 1.222656 181.734375 C 1.164062 178.558594 2.210938 175.527344 4.203125 173.089844 "/></g><g clip-rule="nonzero" clip-path="url(#d0b69ab4b6)"><path style=" stroke:none;fill-rule:nonzero;fill:#ffffff;fill-opacity:1;" d="M 289.429688 59.035156 C 289.046875 55.964844 287.46875 53.269531 284.984375 51.445312 C 256.132812 30.21875 221.796875 19 185.6875 19 C 149.578125 19 115.242188 30.21875 86.394531 51.445312 C 83.910156 53.269531 82.332031 55.964844 81.949219 59.035156 C 81.574219 62.085938 82.476562 65.203125 84.429688 67.574219 L 84.542969 67.714844 C 86.683594 70.308594 89.835938 71.796875 93.203125 71.796875 C 95.597656 71.796875 97.882812 71.046875 99.820312 69.632812 C 124.890625 51.246094 154.582031 41.523438 185.6875 41.523438 C 216.792969 41.523438 246.488281 51.246094 271.558594 69.632812 C 273.488281 71.046875 275.777344 71.796875 278.171875 71.796875 C 281.535156 71.796875 284.695312 70.308594 286.832031 67.714844 L 286.949219 67.574219 C 288.898438 65.203125 289.808594 62.085938 289.429688 59.035156 "/></g><g clip-rule="nonzero" clip-path="url(#dfc183f8b8)"><path style=" stroke:none;fill-rule:nonzero;fill:#ffffff;fill-opacity:1;" d="M 209.640625 354.960938 L 161.789062 354.960938 C 155.183594 354.960938 149.828125 349.601562 149.828125 342.996094 L 149.828125 342.753906 C 149.828125 336.148438 155.183594 330.789062 161.789062 330.789062 L 209.640625 330.789062 C 216.246094 330.789062 221.605469 336.148438 221.605469 342.753906 L 221.605469 342.996094 C 221.605469 349.601562 216.246094 354.960938 209.640625 354.960938 "/></g><path style=" stroke:none;fill-rule:nonzero;fill:#ffffff;fill-opacity:1;" d="M 137.671875 201.632812 L 119.101562 201.632812 L 134.574219 184.066406 C 136.449219 181.941406 138.042969 179.675781 139.304688 177.328125 C 140.597656 174.910156 141.253906 172.539062 141.253906 170.277344 C 141.253906 166.667969 140.550781 163.46875 139.164062 160.769531 C 137.761719 158.039062 135.746094 155.90625 133.164062 154.425781 C 130.601562 152.953125 127.582031 152.207031 124.203125 152.207031 C 120.824219 152.207031 117.734375 153.003906 115.023438 154.570312 C 112.3125 156.144531 110.140625 158.324219 108.574219 161.058594 C 107 163.792969 106.203125 166.898438 106.203125 170.277344 C 106.203125 171.464844 106.65625 172.519531 107.539062 173.40625 C 108.421875 174.289062 109.5 174.734375 110.738281 174.734375 C 112.03125 174.734375 113.121094 174.285156 113.980469 173.394531 C 114.839844 172.511719 115.269531 171.460938 115.269531 170.277344 C 115.269531 168.578125 115.664062 166.964844 116.445312 165.492188 C 117.226562 164.027344 118.316406 162.84375 119.6875 161.980469 C 121.054688 161.121094 122.574219 160.6875 124.203125 160.6875 C 126.792969 160.6875 128.765625 161.523438 130.242188 163.242188 C 131.730469 164.972656 132.484375 167.335938 132.484375 170.277344 C 132.484375 172.632812 131.007812 175.511719 128.09375 178.84375 L 107.441406 202.988281 C 106.621094 203.820312 106.203125 204.890625 106.203125 206.164062 C 106.203125 207.398438 106.636719 208.46875 107.492188 209.351562 C 108.351562 210.242188 109.441406 210.695312 110.738281 210.695312 L 137.671875 210.695312 C 138.957031 210.695312 140.058594 210.246094 140.945312 209.367188 C 141.828125 208.480469 142.273438 207.40625 142.273438 206.164062 C 142.273438 204.925781 141.828125 203.847656 140.945312 202.964844 C 140.058594 202.082031 138.957031 201.632812 137.671875 201.632812 "/><path style=" stroke:none;fill-rule:nonzero;fill:#ffffff;fill-opacity:1;" d="M 173.6875 168.628906 L 173.6875 189.472656 L 157.8125 189.472656 Z M 189.203125 190.449219 C 188.378906 189.804688 187.304688 189.472656 186.007812 189.472656 L 182.457031 189.472656 L 182.457031 156.808594 C 182.457031 155.546875 182.074219 154.460938 181.3125 153.578125 C 180.519531 152.664062 179.476562 152.207031 178.214844 152.207031 C 176.742188 152.207031 175.496094 152.855469 174.507812 154.128906 L 146.628906 190.671875 C 146.035156 191.441406 145.730469 192.347656 145.730469 193.351562 C 145.730469 194.53125 146.148438 195.582031 146.972656 196.460938 C 147.8125 197.355469 148.914062 197.8125 150.265625 197.8125 L 173.6875 197.8125 L 173.6875 206.164062 C 173.6875 207.390625 174.105469 208.460938 174.925781 209.34375 C 175.761719 210.238281 176.796875 210.695312 178 210.695312 C 179.242188 210.695312 180.308594 210.242188 181.171875 209.351562 C 182.027344 208.46875 182.457031 207.394531 182.457031 206.164062 L 182.457031 197.8125 L 186.007812 197.8125 C 187.230469 197.8125 188.296875 197.410156 189.175781 196.617188 C 190.078125 195.804688 190.539062 194.804688 190.539062 193.640625 C 190.539062 192.222656 190.089844 191.148438 189.203125 190.449219 "/></g></svg>